<?xml version="1.0" encoding="utf-8"?>
<!-- Generator: Adobe Illustrator 19.0.1, SVG Export Plug-In . SVG Version: 6.00 Build 0)  -->
<svg version="1.1" id="Слой_1" xmlns="http://www.w3.org/2000/svg" xmlns:xlink="http://www.w3.org/1999/xlink" x="0px" y="0px"
	 viewBox="0 0 70 20" style="enable-background:new 0 0 70 20;" xml:space="preserve">
<style type="text/css">
	.st0{fill:#FFFFFF;}
</style>
<path class="st0" d="M10.6,4.4l-1.2-2l0,0L8.7,1L8.6,0.9l0,0L8.1,0L7.6,0.9l0,0L7.2,1.6l-5.8,10l0,0l-1.3,2.3C0,14,0,14.2,0.1,14.4
	l1.2,2l0,0l1.4,2.4l0.5-0.9l0,0l7.5-13C10.7,4.8,10.7,4.6,10.6,4.4z"/>
<path class="st0" d="M16.1,13.8l-2.4-4.1l0,0l-0.2-0.3h-3.3H9.2c-0.5,0-0.7,0.5-0.5,0.9l0.9,1.6l3.5,6l0,0l0.5,0.9l0.5-0.9l0,0
	l1.3-2.3l0.7-1.2C16.2,14.3,16.2,14,16.1,13.8z"/>
<g>
	<path class="st0" d="M30.9,11.8h-4.3l-0.9,2.1h-1.2l3.7-8.2h1.2l3.7,8.2h-1.2L30.9,11.8z M30.5,10.9l-1.8-4l-1.8,4H30.5z"/>
	<path class="st0" d="M34.9,5.7h3.4c0.9,0,1.6,0.2,2.3,0.5c0.7,0.3,1.2,0.8,1.6,1.5c0.4,0.6,0.6,1.3,0.6,2.1c0,0.8-0.2,1.5-0.6,2.1
		s-0.9,1.1-1.6,1.5c-0.7,0.3-1.4,0.5-2.3,0.5h-3.4V5.7z M38.3,12.9c0.7,0,1.3-0.1,1.8-0.4c0.5-0.3,0.9-0.6,1.2-1.1
		c0.3-0.5,0.4-1,0.4-1.6s-0.1-1.2-0.4-1.6c-0.3-0.5-0.7-0.8-1.2-1.1c-0.5-0.3-1.1-0.4-1.8-0.4h-2.2v6.1L38.3,12.9L38.3,12.9z"/>
	<path class="st0" d="M56.5,5.7l-2.7,8.2h-1.2l-2.2-6.5l-2.2,6.5h-1.3l-2.7-8.2h1.2l2.2,6.6l2.3-6.6h1.1l2.3,6.7l2.3-6.7
		C55.4,5.7,56.5,5.7,56.5,5.7z"/>
	<path class="st0" d="M58.7,5.7h1.2v8.2h-1.2V5.7z"/>
	<path class="st0" d="M70,5.7v8.2h-1l-4.9-6.1v6.1H63V5.7h1l4.9,6.1V5.7H70z"/>
</g>
</svg>
