<svg xmlns="http://www.w3.org/2000/svg" width="20" height="10" viewBox="0 0 20 10">
  <defs>
    <style>
      .cls-1 {
        fill: #21303d;
        fill-rule: evenodd;
      }
    </style>
  </defs>
  <path id="arrow_right" class="cls-1" d="M2545.8,4374.68l1.42,1.49a0.487,0.487,0,0,1-.36.83h-15.03a0.873,0.873,0,0,0-.84,1h0a0.873,0.873,0,0,0,.84,1h15.01a0.506,0.506,0,0,1,.36.86l-1.41,1.46a0.979,0.979,0,0,0,.04,1.41h0a1,1,0,0,0,1.41-.04l3.2-3.34a1.993,1.993,0,0,0,0-2.76l-3.18-3.28a1,1,0,0,0-1.4-.04l-0.01.01A0.976,0.976,0,0,0,2545.8,4374.68Z" transform="translate(-2531 -4373)"/>
</svg>
