<svg xmlns="http://www.w3.org/2000/svg" width="10.03" height="30.031" viewBox="0 0 10.03 30.031">
  <defs>
    <style>
      .cls-1 {
        fill-rule: evenodd;
      }
    </style>
  </defs>
  <path id="arrow_down" class="cls-1" d="M1097.17,630.95l-1.48,1.414a0.5,0.5,0,0,1-.84-0.363V607.087a1,1,0,0,0-1.01-1h0.01a1,1,0,0,0-1,1v24.9a0.51,0.51,0,0,1-.86.36l-1.47-1.4a0.994,0.994,0,0,0-1.41.039l-0.01,0a0.991,0.991,0,0,0,.05,1.4l3.34,3.181a2.006,2.006,0,0,0,2.76-.008l3.29-3.152a0.992,0.992,0,0,0,.04-1.391l-0.01-.011A0.988,0.988,0,0,0,1097.17,630.95Z" transform="translate(-1088.81 -606.094)"/>
</svg>
