<svg xmlns="http://www.w3.org/2000/svg" class="css-tcp77x" viewBox="0 0 16 14" version="1.1"><g id="Symbols" stroke="none" stroke-width="1" fill="currentColor" fill-rule="evenodd"><g id="TopHeader" transform="translate(-1334.000000, -61.000000)" fill="currentColor" fill-rule="nonzero"><g id="Header"><g transform="translate(0.000000, 30.000000)"><g id="icons" transform="translate(1265.000000, 31.000000)"><g id="icon---cart" transform="translate(69.000000, 0.000000)"><g id="Cart"><g id="Group" transform="translate(0.931034, 0.172414)"><path d="M14.628337,3.57050131 C14.5154202,3.42890482 14.3428192,3.34620359 14.1600945,3.34620359 L3.97779551,3.34620359 L3.65522327,1.74641108 C3.45744512,0.734299448 2.54716279,0 1.48982059,0 L0.595517992,0 C0.266626639,0 0,0.262811176 0,0.58699605 C0,0.911180924 0.266626639,1.1739921 0.595517992,1.1739921 L1.48982059,1.1739921 C1.98529156,1.1739921 2.3948756,1.50111195 2.48585752,1.96950219 C2.48612219,1.97087185 2.48638687,1.9722089 2.48665154,1.97354594 L3.82355635,8.60366633 C4.00148389,9.48598661 4.79302656,10.1263667 5.7056248,10.1263667 L11.7363362,10.1263667 C12.6084723,10.1263667 13.3718272,9.5455341 13.5926651,8.71389114 C13.5935253,8.71059744 13.5943855,8.70733635 13.5952126,8.70404265 L14.7387064,4.07202421 C14.7819145,3.89700155 14.7412208,3.71213041 14.628337,3.57050131 Z" id="cart-icon-shape"/><path d="M5.15649867,11.3793103 C4.52465301,11.3793103 4.01061008,11.8897835 4.01061008,12.5172414 C4.01061008,13.1446992 4.52465301,13.6551724 5.15649867,13.6551724 C5.78834434,13.6551724 6.30238727,13.1446992 6.30238727,12.5172414 C6.30238727,11.8897835 5.78834434,11.3793103 5.15649867,11.3793103 Z" id="Shape"/><path d="M10.8859416,11.3793103 C10.254096,11.3793103 9.74005305,11.8897835 9.74005305,12.5172414 C9.74005305,13.1446992 10.254096,13.6551724 10.8859416,13.6551724 C11.5177873,13.6551724 12.0318302,13.1446992 12.0318302,12.5172414 C12.0318302,11.8897835 11.5177873,11.3793103 10.8859416,11.3793103 Z" id="Shape-Copy"/></g></g></g></g></g></g></g></g></svg>