<?xml version="1.0" encoding="iso-8859-1"?>
<!-- Generator: Adobe Illustrator 19.0.0, SVG Export Plug-In . SVG Version: 6.00 Build 0)  -->
<svg version="1.1" id="Capa_1" xmlns="http://www.w3.org/2000/svg" xmlns:xlink="http://www.w3.org/1999/xlink" x="0px" y="0px"
	 viewBox="0 0 512 512" style="enable-background:new 0 0 512 512;" xml:space="preserve">
<g>
	<g>
		<g>
			<path d="M480,0v105.104c0.145,72.436-32.566,141.03-88.944,186.512l-97.728,79.168c-21.956,17.077-52.7,17.077-74.656,0
				l-97.728-79.168C64.567,246.134,31.855,177.54,32,105.104V0H0v105.104c-0.086,79.786,35.044,155.544,96,207.024V448h32V338.512
				l70.544,57.152c33.505,27.117,81.407,27.117,114.912,0L384,338.512V448h32V312.128c60.956-51.48,96.086-127.238,96-207.024V0H480
				z"/>
			<path d="M176.272,214.704C193.254,242.06,223.859,257.912,256,256c32.07,1.906,62.616-13.876,79.616-41.136
				c9.896,2.576,20.078,3.893,30.304,3.92H368v-32h-2.08c-15.032-0.019-29.82-3.792-43.024-10.976L299.2,163.2l-2.592-1.104
				c-12.587-4.124-26.392-1.893-37.04,5.984c-1.263,0.915-2.476,1.897-3.632,2.944c-1.156-1.047-2.369-2.029-3.632-2.944
				c-10.645-7.885-24.454-10.116-37.04-5.984l-27.504,14.176c-13.49,7.077-28.527,10.695-43.76,10.528l1.6,32
				C155.958,218.757,166.266,217.38,176.272,214.704z M226.272,192.192c2.575-0.503,5.241,0.133,7.312,1.744
				c4.246,3.407,6.626,8.624,6.416,14.064h32c-0.219-5.442,2.156-10.666,6.4-14.08c2.048-1.619,4.704-2.257,7.264-1.744
				l19.632,10.512C293.407,217.516,274.947,225.497,256,224c-19.05,1.633-37.642-6.439-49.456-21.472L226.272,192.192z"/>
			<path d="M272,96h48V64h-48c-8.837,0-16-7.163-16-16V0h-32v48C224,74.51,245.491,96,272,96z"/>
			<rect x="96" y="480" width="32" height="32"/>
			<rect x="384" y="480" width="32" height="32"/>
		</g>
	</g>
</g>
<g>
</g>
<g>
</g>
<g>
</g>
<g>
</g>
<g>
</g>
<g>
</g>
<g>
</g>
<g>
</g>
<g>
</g>
<g>
</g>
<g>
</g>
<g>
</g>
<g>
</g>
<g>
</g>
<g>
</g>
</svg>
