<?xml version="1.0" encoding="iso-8859-1"?>
<!-- Generator: Adobe Illustrator 19.0.0, SVG Export Plug-In . SVG Version: 6.00 Build 0)  -->
<svg version="1.1" id="Capa_1" xmlns="http://www.w3.org/2000/svg" xmlns:xlink="http://www.w3.org/1999/xlink" x="0px" y="0px"
	 viewBox="0 0 512 512" style="enable-background:new 0 0 512 512;" xml:space="preserve">
<g>
	<g>
		<path d="M224,42.667h-10.667v-32C213.333,4.776,208.558,0,202.667,0h-85.333c-5.891,0-10.667,4.776-10.667,10.667v32H96
			c-41.218,0.047-74.62,33.449-74.667,74.667V480c0,17.673,14.327,32,32,32h181.333v-21.333H53.333
			c-5.891,0-10.666-4.776-10.666-10.667v-42.667h106.667c5.891,0,10.667-4.776,10.667-10.667V160
			c0-5.891-4.776-10.667-10.667-10.667H42.667v-32H192V96H47.14C55.381,77.183,74.147,64.026,96,64h21.333h85.333H224
			c21.853,0.026,40.619,13.183,48.86,32h-59.527v21.333h64v149.333h21.333V117.333C298.62,76.116,265.218,42.714,224,42.667z
			 M138.667,170.667V416h-96V170.667H138.667z M192,42.666h-64V21.333h64V42.666z"/>
	</g>
</g>
<g>
	<g>
		<path d="M405.333,277.938V160c0-5.891-4.776-10.667-10.667-10.667H352c-5.891,0-10.667,4.776-10.667,10.667v32v21.333v64.604
			c-47.973,5.353-85.279,46.007-85.333,95.396v21.333V416v32v21.333v32c0,5.891,4.776,10.667,10.667,10.667H480
			c5.891,0,10.667-4.776,10.667-10.667v-128C490.612,323.945,453.306,283.29,405.333,277.938z M362.667,170.667H384V192h-21.333
			V170.667z M362.667,213.333H384v64h-21.333V213.333z M277.333,416h117.333v32H277.333V416z M469.334,490.667L469.334,490.667
			H277.333v-21.333h128c5.891,0,10.667-4.776,10.667-10.667v-53.333c0-5.891-4.776-10.667-10.667-10.667h-128v-21.333h149.333V352
			H280.465c9.204-30.817,37.733-53.295,71.535-53.333h42.667c41.218,0.047,74.62,33.449,74.667,74.667V490.667z"/>
	</g>
</g>
<g>
	<g>
		<rect x="234.67" y="149.33" width="21.333" height="21.333"/>
	</g>
</g>
<g>
	<g>
		<rect x="192" y="149.33" width="21.333" height="21.333"/>
	</g>
</g>
<g>
	<g>
		<rect x="234.67" y="192" width="21.333" height="21.333"/>
	</g>
</g>
<g>
</g>
<g>
</g>
<g>
</g>
<g>
</g>
<g>
</g>
<g>
</g>
<g>
</g>
<g>
</g>
<g>
</g>
<g>
</g>
<g>
</g>
<g>
</g>
<g>
</g>
<g>
</g>
<g>
</g>
</svg>
