<?xml version="1.0" encoding="utf-8"?>
<!-- Generator: Adobe Illustrator 19.0.1, SVG Export Plug-In . SVG Version: 6.00 Build 0)  -->
<svg version="1.1" id="Layer_1" xmlns="http://www.w3.org/2000/svg" xmlns:xlink="http://www.w3.org/1999/xlink" x="0px" y="0px"
	 viewBox="45.5 -80.7 131.4 258.4" style="enable-background:new 45.5 -80.7 131.4 258.4;" xml:space="preserve">
<style type="text/css">
	.st0{fill:#21303D;}
</style>
<g>
	<g>
		<g>
			<g>
				<path class="st0" d="M65,177.7H45.5V67.2c0-11.3,2.2-22,6.2-31.8c-4-9.8-6.2-20.6-6.2-31.8c0-46.5,37.8-84.3,84.3-84.3h36.7V2.6
					h-36.7c-24.1,0-45.2,13.3-56.3,32.9c11.1,19.6,32.2,32.9,56.3,32.9h12.5V88h-12.5c-25.6,0-48.6-11.5-64.1-29.6
					c-0.4,2.9-0.6,6-0.6,9v110.3H65z M129.8-61.2c-35.7,0-64.7,29-64.7,64.7c0,3.1,0.2,6.1,0.6,9c15.5-18.1,38.5-29.6,64.1-29.6H147
					v-44.1H129.8z"/>
			</g>
			<g>
				<path class="st0" d="M65,152.5H45.5c0-46.5,37.8-84.3,84.3-84.3h12.5v19.6h-12.5C94.1,87.8,65,116.8,65,152.5z"/>
			</g>
		</g>
		<circle class="st0" cx="166.9" cy="78.3" r="10"/>
	</g>
</g>
</svg>
