<svg id="Capa_1" enable-background="new 0 0 512 512" height="512" viewBox="0 0 512 512" width="512" xmlns="http://www.w3.org/2000/svg"><g><path d="m471 335c0-8.284-6.716-15-15-15-24.813 0-45-20.187-45-45v-110c0-44.088-17.173-85.533-48.355-116.7-31.165-31.151-72.583-48.3-116.644-48.3-.027 0-.059 0-.086 0-90.935.046-164.915 74.709-164.915 166.436v83.564c0 43.395 23.154 81.482 57.756 102.561l-37.951 7.852c-34.653 7.168-59.805 38.056-59.805 73.443v63.144c0 8.284 6.716 15 15 15h380c8.284 0 15-6.716 15-15v-63.144c0-10.898-2.438-21.579-7.101-31.47 16.778-17.52 27.101-41.27 27.101-67.386zm-50 147h-270v-47c0-8.284-6.716-15-15-15s-15 6.716-15 15v47h-50v-48.144c0-21.232 15.091-39.765 35.883-44.066l83.515-17.279c8.923 21.959 30.477 37.489 55.602 37.489 18.459 0 34.991-8.385 46.006-21.539 17.446 26.505 47.459 44.039 81.494 44.039 16.456 0 31.969-4.104 45.58-11.333 1.264 4.123 1.92 8.385 1.92 12.689zm-175-182c-41.355 0-75-33.645-75-75v-59.046l33.021-44.541 116.979 49.525v54.062c0 41.355-33.645 75-75 75zm30 25.626v24.374c0 16.542-13.458 30-30 30s-30-13.458-30-30v-24.374c9.51 2.841 19.579 4.374 30 4.374s20.49-1.533 30-4.374zm97.5 76.874c-37.22 0-67.5-30.28-67.5-67.5v-23.882c27.183-18.996 45-50.513 45-86.118v-64c0-6.024-3.604-11.464-9.152-13.813l-137-58.002c-6.376-2.698-13.774-.682-17.898 4.88l-43 58.002c-1.916 2.585-2.95 5.717-2.95 8.934v64c0 35.605 17.818 67.122 45 86.118v27.625c-42.511-7.163-75-44.227-75-88.743v-83.564c0-75.195 60.53-136.399 134.931-136.437h.07c36.047 0 69.939 14.033 95.436 39.518 25.512 25.501 39.563 59.411 39.563 95.482v110c0 35.759 25.156 65.754 58.701 73.217-6.162 30.912-33.505 54.283-66.201 54.283z"/></g></svg>