<?xml version="1.0" encoding="iso-8859-1"?>
<!-- Generator: Adobe Illustrator 18.0.0, SVG Export Plug-In . SVG Version: 6.00 Build 0)  -->
<!DOCTYPE svg PUBLIC "-//W3C//DTD SVG 1.1//EN" "http://www.w3.org/Graphics/SVG/1.1/DTD/svg11.dtd">
<svg version="1.1" id="Capa_1" xmlns="http://www.w3.org/2000/svg" xmlns:xlink="http://www.w3.org/1999/xlink" x="0px" y="0px"
	 viewBox="0 0 49.733 49.733" style="enable-background:new 0 0 49.733 49.733;" xml:space="preserve">
<path style="fill:#231F20;" d="M0,39.739c2.503-1.842,5.096-3.723,7.658-5.644c4.102-3.076,8.118-6.273,12.306-9.225
	c1.746-1.231,2.635-2.715,2.706-4.723c0.066-1.896,0.966-2.836,2.758-3.424c2.714-0.89,3.403-2.272,2.633-4.479
	c-0.811-2.323-3.125-4.609-5.726-3.672c-1.889,0.681-2.637,2.38-2.884,4.272c-0.09,0.694,0.116,1.446-0.065,2.103
	c-0.133,0.482-0.677,1.194-1.035,1.193c-0.598-0.003-1.452-0.344-1.727-0.816c-0.375-0.644-0.423-1.548-0.408-2.336
	c0.074-3.842,3.443-7.258,7.101-7.273c3.973-0.018,8.018,3.416,8.162,7.094c0.104,2.648-1.13,4.679-3.547,5.822
	c-1.355,0.642-2.515,1.28-2.35,3.051c0.149,1.608,1.157,2.35,2.51,3.072c5.857,3.128,11.672,6.338,17.433,9.639
	c1.28,0.733,2.469,1.809,3.371,2.981c1.701,2.209,0.702,4.886-2.017,5.641c-1.346,0.374-2.76,0.68-4.147,0.696
	c-11.973,0.148-23.946,0.231-35.919,0.305c-1.101,0.007-2.237-0.055-3.298-0.318C1.637,43.232,0.267,42.157,0,39.739z
	 M24.165,25.407c-6.954,5.208-13.507,10.117-20.062,15.026c1.166,0.676,2.213,0.884,3.259,0.874
	c5.619-0.052,11.237-0.175,16.855-0.239c6.339-0.072,12.679-0.087,19.018-0.181c1.033-0.015,2.341,0.339,2.848-1.086
	c0.588-1.655-0.913-2.121-1.816-2.696c-2.285-1.456-4.705-2.697-7.051-4.06C32.883,30.528,28.565,27.985,24.165,25.407z"/>
<g>
</g>
<g>
</g>
<g>
</g>
<g>
</g>
<g>
</g>
<g>
</g>
<g>
</g>
<g>
</g>
<g>
</g>
<g>
</g>
<g>
</g>
<g>
</g>
<g>
</g>
<g>
</g>
<g>
</g>
</svg>
