<svg xmlns="http://www.w3.org/2000/svg" width="20" height="20" viewBox="0 0 20 20">
  <defs>
    <style>
      .cls-1 {
        fill: #f3f4f9;
        fill-rule: evenodd;
      }
    </style>
  </defs>
  <path id="instagram" class="cls-1" d="M1212.64,4615.97a3.315,3.315,0,1,1,3.31,3.31,3.308,3.308,0,0,1-3.31-3.31m-1.8,0a5.11,5.11,0,1,0,5.11-5.09,5.111,5.111,0,0,0-5.11,5.09m9.23-5.3a1.2,1.2,0,1,0,1.2-1.19,1.2,1.2,0,0,0-1.2,1.19m-8.14,13.38a5.582,5.582,0,0,1-1.85-.35,3.229,3.229,0,0,1-1.88-1.88c-0.6-1.51-.4-8.7-0.35-9.86a4.286,4.286,0,0,1,1.09-2.98c1-.99,2.28-1.48,11.04-1.09a4.328,4.328,0,0,1,2.99,1.09c0.99,0.99,1.49,2.28,1.09,11a5.445,5.445,0,0,1-.35,1.84c-0.9,2.31-2.97,2.63-11.78,2.23m-0.08-17.94a5.5,5.5,0,0,0-5.79,5.77c-0.04,1.01-.31,8.6.46,10.59a5.058,5.058,0,0,0,2.92,2.9,7.2,7.2,0,0,0,2.41.46c8.86,0.4,12.15.18,13.53-3.36a7.168,7.168,0,0,0,.47-2.41c0.4-8.88-.07-10.8-1.61-12.35-1.23-1.22-2.67-2.05-12.39-1.6" transform="translate(-1206 -4606)"/>
</svg>
