<svg id="Capa_1" enable-background="new 0 0 512 512" height="512" viewBox="0 0 512 512" width="512" xmlns="http://www.w3.org/2000/svg"><g><path d="m66 372h8.47l-12.71 88.983c-3.852 26.927 17.069 51.017 44.24 51.017 27.197 0 48.088-24.118 44.239-51.014l-12.709-88.986h8.47c5.523 0 10-4.477 10-10v-40c0-5.523-4.477-10-10-10h-30v-262c0-16.542 13.458-30 30-30s30 13.458 30 30v242c0 44.112 35.888 80 80 80s80-35.888 80-80v-242c0-16.542 13.458-30 30-30s30 13.458 30 30v81c0 5.523 4.478 10 10 10s10-4.477 10-10v-81c0-27.57-22.43-50-50-50s-50 22.43-50 50v189.169c-14.671-16.641-36.123-27.169-60-27.169s-45.329 10.528-60 27.169v-189.169c0-27.57-22.43-50-50-50s-50 22.43-50 50v262h-30c-5.523 0-10 4.477-10 10v40c0 5.523 4.477 10 10 10zm190-140c33.084 0 60 26.916 60 60s-26.916 60-60 60-60-26.916-60-60 26.916-60 60-60zm-125.56 231.816c2.129 14.875-9.429 28.184-24.44 28.184-15.029 0-26.566-13.325-24.44-28.186l13.113-91.814h22.654zm-54.44-131.816h60v20h-60z"/><circle cx="406" cy="176" r="10"/><path d="m416 221c0-5.523-4.478-10-10-10s-10 4.477-10 10v91h-30c-5.522 0-10 4.477-10 10v40c0 5.523 4.478 10 10 10h8.47l-12.71 88.983c-3.852 26.928 17.07 51.017 44.24 51.017 27.197 0 48.088-24.118 44.239-51.014l-12.709-88.986h8.47c5.522 0 10-4.477 10-10v-40c0-5.523-4.478-10-10-10h-30zm14.44 242.816c2.129 14.874-9.429 28.184-24.44 28.184-15 0-26.571-13.298-24.44-28.186l13.113-91.814h22.654zm5.56-111.816h-60v-20h60z"/></g></svg>