<?xml version="1.0" encoding="utf-8"?>
<!-- Generator: Adobe Illustrator 16.0.0, SVG Export Plug-In . SVG Version: 6.00 Build 0)  -->
<!DOCTYPE svg PUBLIC "-//W3C//DTD SVG 1.1//EN" "http://www.w3.org/Graphics/SVG/1.1/DTD/svg11.dtd">
<svg version="1.1" id="Calque_1" xmlns="http://www.w3.org/2000/svg" xmlns:xlink="http://www.w3.org/1999/xlink" x="0px" y="0px"
	 width="453.662px" height="70.996px" viewBox="0 0 453.662 70.996" enable-background="new 0 0 453.662 70.996"
	 xml:space="preserve">
<path fill="#654725" d="M1.649,8.447c0,0,9.887-7.809,11.631-0.756l-1.188,31.254l21.123-0.553c0,0-3.573,4.922-3.244,8.678
	c0,0-5.812-7.797-24.637-1.766l0.324-28.888c0,0-0.433-6.992-4.054-4.369C1.604,12.05-2.035,10.12,1.649,8.447"/>
<path fill="#654725" d="M50.854,40.18c0,0-5.531,4.735-8.887-0.854c0,0-3.634-6.892,4.424-8.745c0,0,3.264,0.031,6.557,3.04
	c0,0-1.16,15.196,12.16,10.675l3.31-3.375c0,0-6.577,6.322-9.157-2.135l-1.625-9.617c0,0-0.428-3.023-9.455-3.023
	c0,0-8.178-0.311-13.153,9.646c0,0-3.205,8.929,6.974,9.516C42,45.307,50.319,44.35,50.854,40.18"/>
<path fill="#654725" d="M107.545,1.022c0,0-1.179,5.773-5.207,3.195c0,0-9.022-6.787-20.251,5.413c0,0-3.903,10.803,6.53,12.681
	c0,0,20.437,3.716,17.965,9.642c0,0,2.822,10.595-14.42,7.582c0,0-9.646-1.717-8.475-7.512c0,0-7.811,1.713-8.358,6.372
	c0,0,3.838-0.461,8.329,4.015c0,0,11.528,8.6,24.05-3.742c0,0,6.564-7.611,0.058-16.406c0,0-4.309-5.275-15.877-5.708
	c0,0-7.652-1.251-2.766-8.808c0,0,4.467-5.5,10.469-0.283c0,0,6.067,10.885,9.23,1.617C108.823,9.078,111.418,4.488,107.545,1.022"
	/>
<path fill="#654725" d="M112.407,24.681c0,0,7.232-1.942,6.847,3.995c0,0-2.35,14.592,5.038,11.357c0,0,5.48-0.885,6.156-5.903
	c0,0,1.393-7.483-2.458-6.335c0,0,3.712-6.311,6.956-2.848c0,0-0.564,19.548,4.478,15.591l-5.72,6.004l-4.332-7.444
	c0,0-7.206,10.897-13.956,3.075c0,0-2.045-3.271-1.358-8.28C114.057,33.893,115.805,26.884,112.407,24.681"/>
<path fill="#654725" d="M138.911,8.332c0,0,5.096-0.732,8.822-5.162l1.535,2.904c0,0-4.051,31.457,1.142,32.462
	c0,0,0.323,2.649,10.061,1.539l-4.507,4.289c0,0-11.85,3.694-13.523-5.216l0.926-18.756c0,0,1.471-10.486-4.166-8.999
	C139.2,11.393,136.469,10.435,138.911,8.332"/>
<path fill="#654725" d="M153.623,28.097c0,0,3.676-9.108,16.66-8.04c0,0,8.818,2.578,14.333-2.238c0,0-5.407,10.729-14.6,7.73
	c0,0-9.852,10.926-0.238,13.934c0,0,0.694,2.19,10.172-0.303c0,0-3.102,5.323-9.645,5.866c0,0-8.223,2.106-11.016-8.203
	c0,0,0.37-7.593,7.482-11.464C166.772,25.379,164.998,19.806,153.623,28.097"/>
<path fill="#654725" d="M197.45,40.292c0,0-5.585,4.733-8.918-0.885c0,0-3.541-6.97,4.502-8.746c0,0,3.248,0.061,6.542,3.135
	c0,0-1.254,15.156,12.081,10.75l3.312-3.36c0,0-6.614,6.301-9.123-2.207l-1.547-9.61c0,0-0.401-3.063-9.457-3.11
	c0,0-8.124-0.346-13.212,9.542c0,0-3.268,8.919,6.9,9.578C188.532,45.378,196.891,44.496,197.45,40.292"/>
<path fill="#654725" d="M210.334,31.54c0,0,3.297-1.63,3.12,5.991l0.165,9.303l7.071-5.742c0,0-3.437-8.528,1.87-9.662
	c0,0,6.601-4.032,7.218,4.001l0.111,11.44c0,0,6.586-3.23,7.071-6.145c0,0,0.437-17.766-8.17-14.629c0,0-1.215-0.876-10.314,5.236
	c0,0,0.972-6.737-2.75-3.451L210.334,31.54z"/>
<path fill="#654725" d="M245.062,33.283c0,0,0.309-3.146,4.1-4.672c3.812-1.56,6.607,1.665,7.729,2.827L245,34.129L245.062,33.283z
	 M245.901,40.348c0,0-1.526-1.396-1.457-4.368l17.25-3.637c0,0-4.969-8.344-14.997-5.905c0,0-8.994,2.543-7.916,13.458
	c0,0,2.356,8.092,12.454,6.916c0,0,4.474,0.021,7.019-5.479C258.254,41.333,252.969,47.861,245.901,40.348"/>
<path fill="#654725" d="M304.324,33.171c0,0,0.321-3.179,4.149-4.679c3.799-1.528,6.545,1.744,7.664,2.913l-11.887,2.611
	L304.324,33.171z M305.094,40.223c0,0-1.51-1.421-1.413-4.37l17.28-3.539c0,0-4.916-8.352-14.976-5.985
	c0,0-9.012,2.464-7.985,13.407c0,0,2.308,8.068,12.392,7.02c0,0,4.485,0.008,7.047-5.441
	C317.438,41.312,312.115,47.751,305.094,40.223"/>
<path fill="#654725" d="M288.793,26.675c0,0-6.762-2.202-13.196,1.942c0,0-8.623,6.29-1.771,14.591c0,0,4.387,5.422,11.584-1.687
	c0,0-6.449,3.521-9-1.09c0,0-4.179-7.1,4.68-11.297c0,0,7.3-2.05,9.271,5.535c0,0,1.709,5.033-1.873,9.117
	c0,0,6.115,1.334,6.584,3.25l2.945-3.877c0,0-3.226,0.916-2.898-3.938l0.05-29.623c0,0-0.295-4.619-1.722-4.808l-7.387,6.884
	c0,0,3.252,0.161,3.738,4.611C289.799,16.29,292.638,26.153,288.793,26.675"/>
<path fill="#654725" d="M361.367,0c0,0-0.664,5.842-4.916,3.632c0,0-9.586-5.864-19.691,7.379c0,0-2.897,11.14,7.685,12.003
	c0,0,20.664,1.696,18.731,7.85c0,0,3.748,10.266-13.719,8.942c0,0-9.72-0.779-9.074-6.636c0,0-7.631,2.462-7.766,7.125
	c0,0,3.795-0.785,8.655,3.177c0,0,12.254,7.491,23.595-5.994c0,0,5.868-8.229-1.414-16.374c0,0-4.752-4.833-16.277-4.134
	c0,0-7.731-0.525-3.547-8.512c0,0,3.916-5.913,10.373-1.3c0,0,7.024,10.255,9.34,0.729C363.342,7.888,365.522,3.059,361.367,0"/>
<path fill="#654725" d="M384.742,40.042c0,0-5.57,4.729-8.931-0.887c0,0-3.576-6.938,4.48-8.729c0,0,3.27,0.042,6.555,3.106
	c0,0-1.229,15.169,12.098,10.726l3.312-3.355c0,0-6.592,6.283-9.135-2.201l-1.574-9.618c0,0-0.403-3.062-9.424-3.094
	c0,0-8.147-0.326-13.222,9.583c0,0-3.27,8.923,6.908,9.552C375.812,45.125,384.151,44.225,384.742,40.042"/>
<path fill="#654725" d="M436.115,40.091c0,0-5.578,4.744-8.908-0.875c0,0-3.557-6.943,4.506-8.717c0,0,3.262,0.026,6.535,3.106
	c0,0-1.262,15.165,12.074,10.734l3.34-3.321c0,0-6.604,6.272-9.146-2.203l-1.551-9.654c0,0-0.385-3.041-9.418-3.111
	c0,0-8.176-0.333-13.221,9.585c0,0-3.298,8.896,6.881,9.55C427.207,45.182,435.535,44.294,436.115,40.091"/>
<path fill="#654725" d="M395.233,11.715c0,0,3.892-0.031,4.254,9.128l-0.489,17.753c0,0,0.459,4.508,4.94,7.194
	c0,0,13.09,3.789,15.648-15.913c0,0-3.26-14.546-14.709,2.679c0,0,8.291-7.777,9.688-1.461c0,0,3.537,4.646-2.851,10.792
	c0,0-6.271,3.236-8.209-6.707c0,0,4.688-23.962,0.552-28.765l-1.465-1.665L395.233,11.715z"/>
<path fill="#654725" d="M190.146,66.458v3.601c0,1.026-1.613,1.006-1.613,0.021V57.203c0-0.469,0.381-0.777,0.833-0.777h4.848
	c3.871,0,5.681,2.562,5.681,5.137c0,2.684-1.834,4.896-5.746,4.896L190.146,66.458L190.146,66.458z M190.146,65.001h4.004
	c2.972,0,4.203-1.746,4.155-3.44c-0.017-1.838-1.473-3.688-4.066-3.688h-4.092L190.146,65.001L190.146,65.001z"/>
<path fill="#654725" d="M207.125,66.902l-1.811,3.535c-0.402,0.823-1.878,0.244-1.473-0.648l6.752-13.303
	c0.132-0.291,0.442-0.426,0.733-0.426c0.294,0,0.56,0.135,0.719,0.426l6.726,13.24c0.581,0.955-1.07,1.516-1.496,0.646l-1.747-3.473
	h-8.403V66.902z M211.327,58.453l-3.529,7.041h7.043L211.327,58.453z"/>
<path fill="#654725" d="M226.743,65.675v4.336c0,1.027-1.631,1.027-1.631,0.021v-12.83c0-0.47,0.335-0.777,0.832-0.777h5.292
	c3.873,0,5.844,2.185,5.844,4.804c0,2.258-1.229,3.888-3.979,4.356l3.621,3.91c0.848,0.854-0.381,1.834-1.117,1.08l-4.52-4.898
	h-4.341L226.743,65.675L226.743,65.675z M226.743,64.264h4.521c2.924,0,4.203-1.361,4.157-3.035
	c-0.021-1.836-1.563-3.312-4.157-3.312h-4.521V64.264z"/>
<path fill="#654725" d="M244.155,56.732c0-1.117,1.674-1.097,1.674,0V70.1c0,1.032-1.674,1.073-1.674,0V56.732z"/>
<path fill="#654725" d="M253.708,67.13c0.574,1.854,3.057,2.252,4.844,2.252c1.905,0,4.854-0.573,4.854-2.836
	c0-1.942-2.345-2.103-4.806-2.305c-3.092-0.242-6.396-0.533-6.396-3.865c0-2.951,3.402-4.276,6.132-4.276
	c2.34,0,5.271,0.562,6.214,3.116c0.332,0.892-1.184,1.291-1.521,0.535c-0.668-1.705-3.062-1.996-4.674-1.996
	c-1.496,0-4.401,0.606-4.401,2.644c0,1.944,2.229,2.147,4.825,2.349c3.064,0.267,6.354,0.428,6.354,3.778
	c0,3.418-3.823,4.47-6.579,4.47c-2.275,0-5.767-0.781-6.5-3.472C251.783,66.546,253.528,66.21,253.708,67.13"/>
</svg>
