<svg xmlns="http://www.w3.org/2000/svg" width="13.63" height="12.29" viewBox="0 0 13.63 12.29">
  <defs>
    <style>
      .cls-1 {
        fill: #21303d;
        fill-rule: evenodd;
      }
    </style>
  </defs>
  <path id="megaphone" class="cls-1" d="M1901.26,1615.54v0.95l-11.16,2.24a1.371,1.371,0,0,0-1.09,1.34v1.85a1.371,1.371,0,0,0,1.09,1.34l0.27,0.05v1.59a1.36,1.36,0,0,0,1.09,1.33l2.72,0.56a1.358,1.358,0,0,0,1.64-1.33v-1.06l5.44,1.1v0.95a0.681,0.681,0,0,0,.68.68h0a0.683,0.683,0,0,0,.69-0.68v-10.91a0.683,0.683,0,0,0-.69-0.68h0A0.681,0.681,0,0,0,1901.26,1615.54Zm-6.8,9.11a0.685,0.685,0,0,1-.82.67l-1.36-.28a0.693,0.693,0,0,1-.55-0.67v-0.78l2.73,0.54v0.52Z" transform="translate(-1889 -1614.84)"/>
</svg>
