<svg xmlns="http://www.w3.org/2000/svg" width="12.469" height="15.437" viewBox="0 0 12.469 15.437">
  <defs>
    <style>
      .cls-1 {
        fill: #f3f4f9;
        fill-rule: evenodd;
      }
    </style>
  </defs>
  <path id="rub" class="cls-1" d="M831.786,355.943h2.156v1.826h-2.156v2.025h2.156V362.5h2.685v-2.706h3.608v-2.025h-3.608v-1.826h2.024c3.653,0,5.611-1.738,5.611-4.379,0-2.53-1.408-4.51-5.963-4.51-1.078,0-3.5.044-4.357,0.044v6.821h-2.156v2.024Zm6.8-6.359c1.826,0,2.816.616,2.816,2.222,0,1.563-1.254,2.113-2.838,2.113h-1.936v-4.291C837.353,349.606,838.035,349.584,838.585,349.584Z" transform="translate(-831.781 -347.063)"/>
</svg>
