<svg xmlns="http://www.w3.org/2000/svg" width="20" height="20" viewBox="0 0 20 20">
  <defs>
    <style>
      .cls-1 {
        fill: #21303d;
        fill-rule: evenodd;
      }
    </style>
  </defs>
  <path id="ruler_4" data-name="ruler#4" class="cls-1" d="M1966.56,421.292l-2.86-2.856-1.43-1.429-1.43,1.429-11.43,11.427-1.42,1.429,1.42,1.428,2.86,2.857,1.43,1.428,1.43-1.428,2.86-2.857,1.43-1.428,1.42-1.429,1.43-1.428,1.43-1.429,1.43-1.428,1.43-1.429,1.43-1.428Zm-2.86,2.857-1.43-1.428-1.43,1.428,1.43,1.429-1.43,1.428-1.42-1.428-1.43,1.428,1.43,1.429-1.43,1.428-1.43-1.428-1.43,1.428,1.43,1.429-2.86,2.856-2.86-2.856,11.43-11.428,2.86,2.857Zm-9.29,6.428a1.007,1.007,0,1,1-1.42,0A1,1,0,0,1,1954.41,430.577Z" transform="translate(-1948 -417)"/>
</svg>
