<?xml version="1.0" encoding="iso-8859-1"?>
<!-- Generator: Adobe Illustrator 19.0.0, SVG Export Plug-In . SVG Version: 6.00 Build 0)  -->
<svg version="1.1" id="Capa_1" xmlns="http://www.w3.org/2000/svg" xmlns:xlink="http://www.w3.org/1999/xlink" x="0px" y="0px"
	 viewBox="0 0 512 512" style="enable-background:new 0 0 512 512;" xml:space="preserve">
<g>
	<g>
		<g>
			<polygon points="337.601,443.296 337.601,512 369.601,512 369.601,452.704 390.609,420.016 363.697,402.704 			"/>
			<rect x="387.138" y="355.073" transform="matrix(-0.8411 -0.5409 0.5409 -0.8411 541.5062 901.2321)" width="32" height="32"/>
			<path d="M486.625,194.048l-0.016-0.032c-20.022-16.735-49.819-14.07-66.553,5.952c-1.107,1.324-2.14,2.707-3.095,4.144
				l-43.472,65.2l36.192-153.808c0.855-3.672,1.29-7.43,1.296-11.2c0.03-22.595-15.364-42.294-37.296-47.728
				c-26.316-6.274-52.822,9.633-59.664,35.808l-24.416,97.648V48c0-26.51-21.49-48-48-48c-26.51,0-48,21.49-48,48v142.032
				l-24.416-97.6c-6.867-26.309-33.761-42.07-60.07-35.203c-25.657,6.697-41.401,32.51-35.61,58.387l41.168,174.832l-12.8-15.424
				c-18.698-22.436-52.044-25.466-74.48-6.768c-22.436,18.698-25.466,52.044-6.768,74.48L113.601,454.4V512h32v-69.248
				L45.169,322.24c-3.128-3.74-4.829-8.468-4.8-13.344c-0.132-11.487,9.073-20.906,20.56-21.038
				c6.33-0.073,12.349,2.741,16.352,7.646l25.68,30.896c5.112,6.226,12.744,9.837,20.8,9.84
				c15.022,0.106,27.285-11.985,27.392-27.007c0-0.016,0-0.033,0-0.049c0.01-2.156-0.243-4.305-0.752-6.4l-45.744-194.576
				c-2.236-9.243,3.445-18.548,12.688-20.784s18.548,3.445,20.784,12.688l37.04,148.112c3.437,13.714,17.341,22.046,31.055,18.609
				c11.384-2.853,19.369-13.081,19.377-24.817V48c0-8.837,7.163-16,16-16s16,7.163,16,16v194.016
				c0.009,14.138,11.477,25.593,25.615,25.585c11.736-0.007,21.964-7.993,24.817-19.377l37.04-148.128
				c2.363-9.21,11.744-14.76,20.954-12.398c9.043,2.32,14.589,11.426,12.502,20.526L336.241,288c-0.49,2.098-0.742,4.245-0.752,6.4
				c0.105,15.022,12.369,27.114,27.39,27.008c0.017,0,0.033,0,0.05,0c9.052,0.016,17.49-4.571,22.4-12.176l58.24-87.344
				c2.848-4.283,7.657-6.849,12.8-6.832c8.438,0.026,15.264,6.874,15.264,15.312c0,2.934-0.844,5.805-2.432,8.272l-18.96,29.504
				l26.912,17.312l18.976-29.52C509.024,235.862,504.949,209.327,486.625,194.048z"/>
			<rect x="421.744" y="301.17" transform="matrix(-0.8411 -0.5409 0.5409 -0.8411 634.3752 820.7107)" width="32" height="32"/>
		</g>
	</g>
</g>
<g>
</g>
<g>
</g>
<g>
</g>
<g>
</g>
<g>
</g>
<g>
</g>
<g>
</g>
<g>
</g>
<g>
</g>
<g>
</g>
<g>
</g>
<g>
</g>
<g>
</g>
<g>
</g>
<g>
</g>
</svg>
