<svg xmlns="http://www.w3.org/2000/svg" width="11.5" height="11.5" viewBox="0 0 11.5 11.5">
  <defs>
    <style>
      .cls-1 {
        fill: #21303d;
        fill-rule: evenodd;
      }
    </style>
  </defs>
  <path id="star_favorite" class="cls-1" d="M1468.86,1622.02a1.157,1.157,0,0,0-.3.96l0.37,2.25a1.071,1.071,0,0,1-1.02,1.27,1,1,0,0,1-.49-0.13l-1.94-1.06a1.02,1.02,0,0,0-.96,0l-1.94,1.06a1,1,0,0,1-.49.13,1.066,1.066,0,0,1-1.02-1.27l0.37-2.25a1.157,1.157,0,0,0-.3-0.96l-1.57-1.59a1.1,1.1,0,0,1,.57-1.85l2.17-.33a1.056,1.056,0,0,0,.79-0.6l0.97-2.04a1.014,1.014,0,0,1,1.86,0l0.97,2.04a1.056,1.056,0,0,0,.79.6l2.17,0.33a1.1,1.1,0,0,1,.57,1.85Z" transform="translate(-1459.25 -1615)"/>
</svg>
