<?xml version="1.0" encoding="utf-8"?><svg version="1.1" id="aaСлой_1" xmlns="http://www.w3.org/2000/svg" x="0" y="0" viewBox="0 0 70 20" xml:space="preserve" width="70" height="20"><style>.aast0{fill:#fff}</style><path class="aast0" d="M10.6 4.4l-1.2-2L8.7 1 8.6.9 8.1 0l-.5.9-.4.7-5.8 10-1.3 2.3c-.1.1-.1.3 0 .5l1.2 2 1.4 2.4.5-.9 7.5-13c0-.1 0-.3-.1-.5zM16.1 13.8l-2.4-4.1-.2-.3H9.2c-.5 0-.7.5-.5.9l.9 1.6 3.5 6 .5.9.5-.9 1.3-2.3.7-1.2c.1-.1.1-.4 0-.6zM30.9 11.8h-4.3l-.9 2.1h-1.2l3.7-8.2h1.2l3.7 8.2h-1.2l-1-2.1zm-.4-.9l-1.8-4-1.8 4h3.6zM34.9 5.7h3.4c.9 0 1.6.2 2.3.5.7.3 1.2.8 1.6 1.5.4.6.6 1.3.6 2.1s-.2 1.5-.6 2.1-.9 1.1-1.6 1.5c-.7.3-1.4.5-2.3.5h-3.4V5.7zm3.4 7.2c.7 0 1.3-.1 1.8-.4.5-.3.9-.6 1.2-1.1.3-.5.4-1 .4-1.6s-.1-1.2-.4-1.6c-.3-.5-.7-.8-1.2-1.1-.5-.3-1.1-.4-1.8-.4h-2.2v6.1l2.2.1zM56.5 5.7l-2.7 8.2h-1.2l-2.2-6.5-2.2 6.5h-1.3l-2.7-8.2h1.2l2.2 6.6 2.3-6.6H51l2.3 6.7 2.3-6.7h.9zM58.7 5.7h1.2v8.2h-1.2V5.7zM70 5.7v8.2h-1l-4.9-6.1v6.1H63V5.7h1l4.9 6.1V5.7H70z"/></svg>