<?xml version="1.0" encoding="iso-8859-1"?><svg xmlns="http://www.w3.org/2000/svg" viewBox="0 0 512.042 512.042" width="512.04" height="512.04"><path d="M378.412.63l30.867 8.434-8.085 29.587-30.867-8.436zM361.923 61.094l30.868 8.435-8.431 30.852-30.868-8.435zM472.884 405.597v.08l-79.104-22.576-31.2-202.832 11.2-41.296-30.864-8.416-13.056 47.872 35.36 229.792 98.8 28.24c11.647 3.336 18.384 15.482 15.048 27.128a21.936 21.936 0 01-21.064 15.896h-122.56a50.594 50.594 0 01-44.208-26l-18.688-33.6a307.395 307.395 0 00-137.056-128.864l-85.984-41.088a58.05 58.05 0 01-17.504-41.456c-.272-31.26 23.753-57.371 54.928-59.696l54.4-4.192L191.06 12.045 161.092.845l-42.544 113.408-34.096 2.624C36.535 120.33-.441 160.438.004 208.477a89.871 89.871 0 0029.408 66.544l92.288 44.8a275.582 275.582 0 01122.944 115.52l18.688 33.6a82.575 82.575 0 0072.176 42.464h122.56c29.788.021 53.953-24.11 53.974-53.898.017-24.11-15.97-45.304-39.158-51.91z"/><path d="M176.004 158.221v32c0 26.51 21.49 48 48 48h32v-32h-32c-8.837 0-16-7.163-16-16v-32h-32z"/></svg>