<?xml version="1.0" encoding="utf-8"?><svg xmlns="http://www.w3.org/2000/svg" width="10.03" height="30.031" viewBox="0 0 10.03 30.031"><defs><style>.aecls-1{fill-rule:evenodd}</style></defs><path id="aearrow_down" class="aecls-1" d="M1097.17 630.95l-1.48 1.414a.5.5 0 01-.84-.363v-24.914a1 1 0 00-1.01-1h.01a1 1 0 00-1 1v24.9a.51.51 0 01-.86.36l-1.47-1.4a.994.994 0 00-1.41.039h-.01a.991.991 0 00.05 1.4l3.34 3.181a2.006 2.006 0 002.76-.008l3.29-3.152a.992.992 0 00.04-1.391l-.01-.011a.988.988 0 00-1.4-.055z" transform="translate(-1088.81 -606.094)"/></svg>