<?xml version="1.0" encoding="utf-8"?><svg xmlns="http://www.w3.org/2000/svg" width="20" height="10" viewBox="0 0 20 10"><defs><style>.agcls-1{fill:#21303d;fill-rule:evenodd}</style></defs><path id="agarrow_right" class="agcls-1" d="M2545.8 4374.68l1.42 1.49a.487.487 0 01-.36.83h-15.03a.873.873 0 00-.84 1 .873.873 0 00.84 1h15.01a.506.506 0 01.36.86l-1.41 1.46a.979.979 0 00.04 1.41 1 1 0 001.41-.04l3.2-3.34a1.993 1.993 0 000-2.76l-3.18-3.28a1 1 0 00-1.4-.04l-.01.01a.976.976 0 00-.05 1.4z" transform="translate(-2531 -4373)"/></svg>