<?xml version="1.0" encoding="utf-8"?><svg height="512" width="512" xmlns="http://www.w3.org/2000/svg" viewBox="0 0 512 512"><path d="M428.847 22.809C420.929 8.74 405.827 0 389.433 0H256.961c-24.813 0-45 20.187-45 45v60c0 24.813 20.187 45 45 45h90c8.271 0 15 6.729 15 15v117.833c-43.251-11.824-88.843-13.285-132.67-4.37-33.393-31.953-80.688-44.952-127.917-33.143-47.222 11.807-86.413 50.342-97.63 98.306-9.646 41.258-.242 83.755 25.804 116.593C55.647 493.126 94.434 512 135.961 512c195.815 0 331.363-74.406 367.708-92.583A15 15 0 00511.961 406v-65.072c0-111.512-28.741-221.516-83.114-318.119zm53.114 373.948C433.23 421.303 309.867 482 135.961 482c-32.314 0-62.533-14.734-82.91-40.425-20.32-25.62-27.645-58.832-20.095-91.12 8.482-36.278 38.902-66.833 75.694-76.033 30.208-7.554 60.493-2.388 84.948 13.753a280.993 280.993 0 00-34.345 14.407c-7.41 3.705-10.413 12.715-6.708 20.125 3.704 7.409 12.714 10.413 20.124 6.708 71.253-35.626 156.329-35.627 227.584 0 7.422 3.712 16.426.688 20.124-6.708 3.705-7.41.702-16.42-6.708-20.125a280.554 280.554 0 00-21.708-9.719V165c0-24.813-20.187-45-45-45h-15V75c0-8.284-6.716-15-15-15h-30c-8.284 0-15 6.716-15 15s6.716 15 15 15h15v30h-45c-8.271 0-15-6.729-15-15V45c0-8.271 6.729-15 15-15h132.473c5.573 0 10.658 2.883 13.271 7.523 51.851 92.121 79.257 197.036 79.257 303.405v55.829z"/></svg>