<?xml version="1.0" encoding="utf-8"?><svg xmlns="http://www.w3.org/2000/svg" class="ajcss-tcp77x" viewBox="0 0 16 14" width="16" height="14"><g fill-rule="nonzero" fill="currentColor"><path d="M15.56 3.743a.599.599 0 00-.469-.224H4.91l-.323-1.6C4.388.907 3.478.172 2.421.172h-.894A.591.591 0 00.93.76c0 .325.267.587.596.587h.894c.495 0 .905.328.996.796v.004l1.338 6.63c.178.882.97 1.523 1.882 1.523h6.03c.873 0 1.636-.581 1.857-1.413l.002-.01 1.144-4.632a.58.58 0 00-.11-.501zM6.088 11.552c-.632 0-1.146.51-1.146 1.138 0 .627.514 1.138 1.146 1.138.631 0 1.145-.51 1.145-1.138 0-.628-.514-1.138-1.145-1.138zM11.817 11.552c-.632 0-1.146.51-1.146 1.138 0 .627.514 1.138 1.146 1.138.632 0 1.146-.51 1.146-1.138 0-.628-.514-1.138-1.146-1.138z"/></g></svg>