<?xml version="1.0" encoding="iso-8859-1"?><svg xmlns="http://www.w3.org/2000/svg" viewBox="0 0 512 512" width="512" height="512"><path d="M480 0v105.104a239.023 239.023 0 01-88.944 186.512l-97.728 79.168c-21.956 17.077-52.7 17.077-74.656 0l-97.728-79.168A239.027 239.027 0 0132 105.104V0H0v105.104a270.596 270.596 0 0096 207.024V448h32V338.512l70.544 57.152c33.505 27.117 81.407 27.117 114.912 0L384 338.512V448h32V312.128a270.596 270.596 0 0096-207.024V0h-32z"/><path d="M176.272 214.704A87.71 87.71 0 00256 256a87.697 87.697 0 0079.616-41.136 121.571 121.571 0 0030.304 3.92H368v-32h-2.08a90.26 90.26 0 01-43.024-10.976L299.2 163.2l-2.592-1.104a40.88 40.88 0 00-37.04 5.984 42.912 42.912 0 00-3.632 2.944 42.912 42.912 0 00-3.632-2.944 40.832 40.832 0 00-37.04-5.984l-27.504 14.176A92.027 92.027 0 01144 186.8l1.6 32a120.653 120.653 0 0030.672-4.096zm50-22.512a9.075 9.075 0 017.312 1.744A17.181 17.181 0 01240 208h32a17.185 17.185 0 016.4-14.08 8.895 8.895 0 017.264-1.744l19.632 10.512A57.392 57.392 0 01256 224a56.738 56.738 0 01-49.456-21.472l19.728-10.336zM272 96h48V64h-48c-8.837 0-16-7.163-16-16V0h-32v48c0 26.51 21.491 48 48 48zM96 480h32v32H96zM384 480h32v32h-32z"/></svg>