<?xml version="1.0" encoding="iso-8859-1"?><svg xmlns="http://www.w3.org/2000/svg" viewBox="0 0 512 512" width="512" height="512"><path d="M224 42.667h-10.667v-32C213.333 4.776 208.558 0 202.667 0h-85.333c-5.891 0-10.667 4.776-10.667 10.667v32H96c-41.218.047-74.62 33.449-74.667 74.667V480c0 17.673 14.327 32 32 32h181.333v-21.333H53.333c-5.891 0-10.666-4.776-10.666-10.667v-42.667h106.667c5.891 0 10.667-4.776 10.667-10.667V160c0-5.891-4.776-10.667-10.667-10.667H42.667v-32H192V96H47.14C55.381 77.183 74.147 64.026 96 64h128c21.853.026 40.619 13.183 48.86 32h-59.527v21.333h64v149.333h21.333V117.333C298.62 76.116 265.218 42.714 224 42.667zm-85.333 128V416h-96V170.667h96zM192 42.666h-64V21.333h64v21.333z"/><path d="M405.333 277.938V160c0-5.891-4.776-10.667-10.667-10.667H352c-5.891 0-10.667 4.776-10.667 10.667v117.937c-47.973 5.353-85.279 46.007-85.333 95.396v128c0 5.891 4.776 10.667 10.667 10.667H480c5.891 0 10.667-4.776 10.667-10.667v-128c-.055-49.388-37.361-90.043-85.334-95.395zm-42.666-107.271H384V192h-21.333v-21.333zm0 42.666H384v64h-21.333v-64zM277.333 416h117.333v32H277.333v-32zm192.001 74.667H277.333v-21.333h128c5.891 0 10.667-4.776 10.667-10.667v-53.333c0-5.891-4.776-10.667-10.667-10.667h-128v-21.333h149.333V352H280.465c9.204-30.817 37.733-53.295 71.535-53.333h42.667c41.218.047 74.62 33.449 74.667 74.667v117.333zM234.67 149.33h21.333v21.333H234.67zM192 149.33h21.333v21.333H192zM234.67 192h21.333v21.333H234.67z"/></svg>