<?xml version="1.0" encoding="utf-8"?><svg version="1.1" id="abLayer_1" xmlns="http://www.w3.org/2000/svg" x="0" y="0" viewBox="45.5 -80.7 131.4 258.4" xml:space="preserve" width="131.4" height="258.4"><style>.abst0{fill:#21303d}</style><path class="abst0" d="M65 177.7H45.5V67.2c0-11.3 2.2-22 6.2-31.8-4-9.8-6.2-20.6-6.2-31.8 0-46.5 37.8-84.3 84.3-84.3h36.7V2.6h-36.7c-24.1 0-45.2 13.3-56.3 32.9 11.1 19.6 32.2 32.9 56.3 32.9h12.5V88h-12.5c-25.6 0-48.6-11.5-64.1-29.6-.4 2.9-.6 6-.6 9v110.3H65zm64.8-238.9c-35.7 0-64.7 29-64.7 64.7 0 3.1.2 6.1.6 9 15.5-18.1 38.5-29.6 64.1-29.6H147v-44.1h-17.2z"/><path class="abst0" d="M65 152.5H45.5c0-46.5 37.8-84.3 84.3-84.3h12.5v19.6h-12.5c-35.7 0-64.8 29-64.8 64.7z"/><circle class="abst0" cx="166.9" cy="78.3" r="10"/></svg>