<?xml version="1.0" encoding="utf-8"?><svg height="512" width="512" xmlns="http://www.w3.org/2000/svg" viewBox="0 0 512 512"><path d="M471 335c0-8.284-6.716-15-15-15-24.813 0-45-20.187-45-45V165c0-44.088-17.173-85.533-48.355-116.7C331.48 17.149 290.062 0 246.001 0h-.086C154.98.046 81 74.709 81 166.436V250c0 43.395 23.154 81.482 57.756 102.561l-37.951 7.852C66.152 367.581 41 398.469 41 433.856V497c0 8.284 6.716 15 15 15h380c8.284 0 15-6.716 15-15v-63.144c0-10.898-2.438-21.579-7.101-31.47C460.677 384.866 471 361.116 471 335zm-50 147H151v-47c0-8.284-6.716-15-15-15s-15 6.716-15 15v47H71v-48.144c0-21.232 15.091-39.765 35.883-44.066l83.515-17.279C199.321 394.47 220.875 410 246 410c18.459 0 34.991-8.385 46.006-21.539 17.446 26.505 47.459 44.039 81.494 44.039 16.456 0 31.969-4.104 45.58-11.333a43.235 43.235 0 011.92 12.689zM246 300c-41.355 0-75-33.645-75-75v-59.046l33.021-44.541L321 170.938V225c0 41.355-33.645 75-75 75zm30 25.626V350c0 16.542-13.458 30-30 30s-30-13.458-30-30v-24.374c9.51 2.841 19.579 4.374 30 4.374s20.49-1.533 30-4.374zm97.5 76.874c-37.22 0-67.5-30.28-67.5-67.5v-23.882c27.183-18.996 45-50.513 45-86.118v-64a15 15 0 00-9.152-13.813l-137-58.002a15.005 15.005 0 00-17.898 4.88l-43 58.002a15.003 15.003 0 00-2.95 8.934v64c0 35.605 17.818 67.122 45 86.118v27.625c-42.511-7.163-75-44.227-75-88.743v-83.564C111 91.242 171.53 30.038 245.931 30h.07c36.047 0 69.939 14.033 95.436 39.518C366.949 95.019 381 128.929 381 165v110c0 35.759 25.156 65.754 58.701 73.217-6.162 30.912-33.505 54.283-66.201 54.283z"/></svg>