<?xml version="1.0" encoding="iso-8859-1"?><!DOCTYPE svg PUBLIC "-//W3C//DTD SVG 1.1//EN" "http://www.w3.org/Graphics/SVG/1.1/DTD/svg11.dtd"><svg xmlns="http://www.w3.org/2000/svg" viewBox="0 0 49.733 49.733" width="49.73" height="49.73"><path d="M0 39.739c2.503-1.842 5.096-3.723 7.658-5.644 4.102-3.076 8.118-6.273 12.306-9.225 1.746-1.231 2.635-2.715 2.706-4.723.066-1.896.966-2.836 2.758-3.424 2.714-.89 3.403-2.272 2.633-4.479-.811-2.323-3.125-4.609-5.726-3.672-1.889.681-2.637 2.38-2.884 4.272-.09.694.116 1.446-.065 2.103-.133.482-.677 1.194-1.035 1.193-.598-.003-1.452-.344-1.727-.816-.375-.644-.423-1.548-.408-2.336.074-3.842 3.443-7.258 7.101-7.273 3.973-.018 8.018 3.416 8.162 7.094.104 2.648-1.13 4.679-3.547 5.822-1.355.642-2.515 1.28-2.35 3.051.149 1.608 1.157 2.35 2.51 3.072a668.588 668.588 0 0117.433 9.639c1.28.733 2.469 1.809 3.371 2.981 1.701 2.209.702 4.886-2.017 5.641-1.346.374-2.76.68-4.147.696-11.973.148-23.946.231-35.919.305-1.101.007-2.237-.055-3.298-.318C1.637 43.232.267 42.157 0 39.739zm24.165-14.332L4.103 40.433c1.166.676 2.213.884 3.259.874 5.619-.052 11.237-.175 16.855-.239 6.339-.072 12.679-.087 19.018-.181 1.033-.015 2.341.339 2.848-1.086.588-1.655-.913-2.121-1.816-2.696-2.285-1.456-4.705-2.697-7.051-4.06-4.333-2.517-8.651-5.06-13.051-7.638z" fill="#231f20"/></svg>