<?xml version="1.0" encoding="iso-8859-1"?><svg xmlns="http://www.w3.org/2000/svg" viewBox="0 0 512 512" width="512" height="512"><path d="M436.948 251.488A760.582 760.582 0 01399.956 0h-32a867.931 867.931 0 0012.8 159.136c-23.44 26.4-62.784 48.48-122.496 18.544a385.605 385.605 0 00-126.224-41.408A197.81 197.81 0 00175.956 0h-32A170.578 170.578 0 01101.7 123.392a310.07 310.07 0 00-57.872 112.224c-33.6 117.744 61.984 263.136 66.08 269.264l26.624-17.76c-.912-1.376-91.552-139.04-61.92-242.736 1.76-6.16 3.6-11.92 5.488-17.392 47.36 7.68 157.056 32.288 204.048 99.536l31.344 172.336 31.472-5.728-28.928-159.088a99.578 99.578 0 0030.72-10.848 101.877 101.877 0 0037.36-35.296l19.12-30.576.96 3.2A761.138 761.138 0 01443.156 512h32a797.93 797.93 0 00-38.208-260.512zm-77.952 19.44a71.297 71.297 0 01-51.888 32.64c-53.104-70.704-160.576-97.6-214.4-107.008a252.178 252.178 0 0117.152-29.552c12.976-.32 59.104 1.76 134.16 39.312A152.004 152.004 0 00312.18 224a118.847 118.847 0 0076.32-28.304c1.6 6.832 3.328 13.472 5.04 19.968l-34.544 55.264z"/><path d="M283.22 96h32v32h-32z"/></svg>