<?xml version="1.0" encoding="utf-8"?><svg height="512" width="512" xmlns="http://www.w3.org/2000/svg" viewBox="0 0 512 512"><path d="M66 372h8.47l-12.71 88.983C57.908 487.91 78.829 512 106 512c27.197 0 48.088-24.118 44.239-51.014L137.53 372H146c5.523 0 10-4.477 10-10v-40c0-5.523-4.477-10-10-10h-30V50c0-16.542 13.458-30 30-30s30 13.458 30 30v242c0 44.112 35.888 80 80 80s80-35.888 80-80V50c0-16.542 13.458-30 30-30s30 13.458 30 30v81c0 5.523 4.478 10 10 10s10-4.477 10-10V50c0-27.57-22.43-50-50-50s-50 22.43-50 50v189.169C301.329 222.528 279.877 212 256 212s-45.329 10.528-60 27.169V50c0-27.57-22.43-50-50-50S96 22.43 96 50v262H66c-5.523 0-10 4.477-10 10v40c0 5.523 4.477 10 10 10zm190-140c33.084 0 60 26.916 60 60s-26.916 60-60 60-60-26.916-60-60 26.916-60 60-60zM130.44 463.816C132.569 478.691 121.011 492 106 492c-15.029 0-26.566-13.325-24.44-28.186L94.673 372h22.654zM76 332h60v20H76z"/><circle cx="406" cy="176" r="10"/><path d="M416 221c0-5.523-4.478-10-10-10s-10 4.477-10 10v91h-30c-5.522 0-10 4.477-10 10v40c0 5.523 4.478 10 10 10h8.47l-12.71 88.983C357.908 487.911 378.83 512 406 512c27.197 0 48.088-24.118 44.239-51.014L437.53 372H446c5.522 0 10-4.477 10-10v-40c0-5.523-4.478-10-10-10h-30zm14.44 242.816C432.569 478.69 421.011 492 406 492c-15 0-26.571-13.298-24.44-28.186L394.673 372h22.654zM436 352h-60v-20h60z"/></svg>