<?xml version="1.0" encoding="utf-8"?><!DOCTYPE svg PUBLIC "-//W3C//DTD SVG 1.1//EN" "http://www.w3.org/Graphics/SVG/1.1/DTD/svg11.dtd"><svg xmlns="http://www.w3.org/2000/svg" width="453.662" height="70.996" viewBox="0 0 453.662 70.996"><path fill="#654725" d="M1.649 8.447S11.536.638 13.28 7.691l-1.188 31.254 21.123-.553s-3.573 4.922-3.244 8.678c0 0-5.812-7.797-24.637-1.766l.324-28.888s-.433-6.992-4.054-4.369c0 .003-3.639-1.927.045-3.6M50.854 40.18s-5.531 4.735-8.887-.854c0 0-3.634-6.892 4.424-8.745 0 0 3.264.031 6.557 3.04 0 0-1.16 15.196 12.16 10.675l3.31-3.375s-6.577 6.322-9.157-2.135l-1.625-9.617s-.428-3.023-9.455-3.023c0 0-8.178-.311-13.153 9.646 0 0-3.205 8.929 6.974 9.516-.002-.001 8.317-.958 8.852-5.128M107.545 1.022s-1.179 5.773-5.207 3.195c0 0-9.022-6.787-20.251 5.413 0 0-3.903 10.803 6.53 12.681 0 0 20.437 3.716 17.965 9.642 0 0 2.822 10.595-14.42 7.582 0 0-9.646-1.717-8.475-7.512 0 0-7.811 1.713-8.358 6.372 0 0 3.838-.461 8.329 4.015 0 0 11.528 8.6 24.05-3.742 0 0 6.564-7.611.058-16.406 0 0-4.309-5.275-15.877-5.708 0 0-7.652-1.251-2.766-8.808 0 0 4.467-5.5 10.469-.283 0 0 6.067 10.885 9.23 1.617.001-.002 2.596-4.592-1.277-8.058M112.407 24.681s7.232-1.942 6.847 3.995c0 0-2.35 14.592 5.038 11.357 0 0 5.48-.885 6.156-5.903 0 0 1.393-7.483-2.458-6.335 0 0 3.712-6.311 6.956-2.848 0 0-.564 19.548 4.478 15.591l-5.72 6.004-4.332-7.444s-7.206 10.897-13.956 3.075c0 0-2.045-3.271-1.358-8.28-.001 0 1.747-7.009-1.651-9.212M138.911 8.332s5.096-.732 8.822-5.162l1.535 2.904s-4.051 31.457 1.142 32.462c0 0 .323 2.649 10.061 1.539l-4.507 4.289s-11.85 3.694-13.523-5.216l.926-18.756s1.471-10.486-4.166-8.999c-.001 0-2.732-.958-.29-3.061"/><path fill="#654725" d="M153.623 28.097s3.676-9.108 16.66-8.04c0 0 8.818 2.578 14.333-2.238 0 0-5.407 10.729-14.6 7.73 0 0-9.852 10.926-.238 13.934 0 0 .694 2.19 10.172-.303 0 0-3.102 5.323-9.645 5.866 0 0-8.223 2.106-11.016-8.203 0 0 .37-7.593 7.482-11.464.001 0-1.773-5.573-13.148 2.718M197.45 40.292s-5.585 4.733-8.918-.885c0 0-3.541-6.97 4.502-8.746 0 0 3.248.061 6.542 3.135 0 0-1.254 15.156 12.081 10.75l3.312-3.36s-6.614 6.301-9.123-2.207l-1.547-9.61s-.401-3.063-9.457-3.11c0 0-8.124-.346-13.212 9.542 0 0-3.268 8.919 6.9 9.578.002-.001 8.361-.883 8.92-5.087"/><path fill="#654725" d="M210.334 31.54s3.297-1.63 3.12 5.991l.165 9.303 7.071-5.742s-3.437-8.528 1.87-9.662c0 0 6.601-4.032 7.218 4.001l.111 11.44s6.586-3.23 7.071-6.145c0 0 .437-17.766-8.17-14.629 0 0-1.215-.876-10.314 5.236 0 0 .972-6.737-2.75-3.451l-5.392 3.658zM245.062 33.283s.309-3.146 4.1-4.672c3.812-1.56 6.607 1.665 7.729 2.827L245 34.129l.062-.846zm.839 7.065s-1.526-1.396-1.457-4.368l17.25-3.637s-4.969-8.344-14.997-5.905c0 0-8.994 2.543-7.916 13.458 0 0 2.356 8.092 12.454 6.916 0 0 4.474.021 7.019-5.479 0 0-5.285 6.528-12.353-.985M304.324 33.171s.321-3.179 4.149-4.679c3.799-1.528 6.545 1.744 7.664 2.913l-11.887 2.611.074-.845zm.77 7.052s-1.51-1.421-1.413-4.37l17.28-3.539s-4.916-8.352-14.976-5.985c0 0-9.012 2.464-7.985 13.407 0 0 2.308 8.068 12.392 7.02 0 0 4.485.008 7.047-5.441-.001-.003-5.324 6.436-12.345-1.092M288.793 26.675s-6.762-2.202-13.196 1.942c0 0-8.623 6.29-1.771 14.591 0 0 4.387 5.422 11.584-1.687 0 0-6.449 3.521-9-1.09 0 0-4.179-7.1 4.68-11.297 0 0 7.3-2.05 9.271 5.535 0 0 1.709 5.033-1.873 9.117 0 0 6.115 1.334 6.584 3.25l2.945-3.877s-3.226.916-2.898-3.938l.05-29.623s-.295-4.619-1.722-4.808l-7.387 6.884s3.252.161 3.738 4.611c.001.005 2.84 9.868-1.005 10.39M361.367 0s-.664 5.842-4.916 3.632c0 0-9.586-5.864-19.691 7.379 0 0-2.897 11.14 7.685 12.003 0 0 20.664 1.696 18.731 7.85 0 0 3.748 10.266-13.719 8.942 0 0-9.72-.779-9.074-6.636 0 0-7.631 2.462-7.766 7.125 0 0 3.795-.785 8.655 3.177 0 0 12.254 7.491 23.595-5.994 0 0 5.868-8.229-1.414-16.374 0 0-4.752-4.833-16.277-4.134 0 0-7.731-.525-3.547-8.512 0 0 3.916-5.913 10.373-1.3 0 0 7.024 10.255 9.34.729 0 .001 2.18-4.828-1.975-7.887M384.742 40.042s-5.57 4.729-8.931-.887c0 0-3.576-6.938 4.48-8.729 0 0 3.27.042 6.555 3.106 0 0-1.229 15.169 12.098 10.726l3.312-3.355s-6.592 6.283-9.135-2.201l-1.574-9.618s-.403-3.062-9.424-3.094c0 0-8.147-.326-13.222 9.583 0 0-3.27 8.923 6.908 9.552.003 0 8.342-.9 8.933-5.083M436.115 40.091s-5.578 4.744-8.908-.875c0 0-3.557-6.943 4.506-8.717 0 0 3.262.026 6.535 3.106 0 0-1.262 15.165 12.074 10.734l3.34-3.321s-6.604 6.272-9.146-2.203l-1.551-9.654s-.385-3.041-9.418-3.111c0 0-8.176-.333-13.221 9.585 0 0-3.298 8.896 6.881 9.55 0-.003 8.328-.891 8.908-5.094"/><path fill="#654725" d="M395.233 11.715s3.892-.031 4.254 9.128l-.489 17.753s.459 4.508 4.94 7.194c0 0 13.09 3.789 15.648-15.913 0 0-3.26-14.546-14.709 2.679 0 0 8.291-7.777 9.688-1.461 0 0 3.537 4.646-2.851 10.792 0 0-6.271 3.236-8.209-6.707 0 0 4.688-23.962.552-28.765l-1.465-1.665-7.359 6.965zM190.146 66.458v3.601c0 1.026-1.613 1.006-1.613.021V57.203c0-.469.381-.777.833-.777h4.848c3.871 0 5.681 2.562 5.681 5.137 0 2.684-1.834 4.896-5.746 4.896l-4.003-.001zm0-1.457h4.004c2.972 0 4.203-1.746 4.155-3.44-.017-1.838-1.473-3.688-4.066-3.688h-4.092l-.001 7.128zM207.125 66.902l-1.811 3.535c-.402.823-1.878.244-1.473-.648l6.752-13.303c.132-.291.442-.426.733-.426.294 0 .56.135.719.426l6.726 13.24c.581.955-1.07 1.516-1.496.646l-1.747-3.473h-8.403v.003zm4.202-8.449l-3.529 7.041h7.043l-3.514-7.041zM226.743 65.675v4.336c0 1.027-1.631 1.027-1.631.021v-12.83c0-.47.335-.777.832-.777h5.292c3.873 0 5.844 2.185 5.844 4.804 0 2.258-1.229 3.888-3.979 4.356l3.621 3.91c.848.854-.381 1.834-1.117 1.08l-4.52-4.898h-4.341l-.001-.002zm0-1.411h4.521c2.924 0 4.203-1.361 4.157-3.035-.021-1.836-1.563-3.312-4.157-3.312h-4.521v6.347zM244.155 56.732c0-1.117 1.674-1.097 1.674 0V70.1c0 1.032-1.674 1.073-1.674 0V56.732zM253.708 67.13c.574 1.854 3.057 2.252 4.844 2.252 1.905 0 4.854-.573 4.854-2.836 0-1.942-2.345-2.103-4.806-2.305-3.092-.242-6.396-.533-6.396-3.865 0-2.951 3.402-4.276 6.132-4.276 2.34 0 5.271.562 6.214 3.116.332.892-1.184 1.291-1.521.535-.668-1.705-3.062-1.996-4.674-1.996-1.496 0-4.401.606-4.401 2.644 0 1.944 2.229 2.147 4.825 2.349 3.064.267 6.354.428 6.354 3.778 0 3.418-3.823 4.47-6.579 4.47-2.275 0-5.767-.781-6.5-3.472-.271-.978 1.474-1.314 1.654-.394"/></svg>