<?xml version="1.0" encoding="utf-8"?><svg height="512" viewBox="0 0 511.907 511.907" width="512" xmlns="http://www.w3.org/2000/svg"><path d="M55.574 346.719c-23.619 11.034-35.579 24.192-35.579 39.235 0 20.069 22.23 36.815 66.075 49.771 38.162 11.277 89.025 18.459 143.22 20.223 3.473.1 6.759-1.587 8.673-4.489l18.032-27.342 18.032 27.342a10 10 0 008.673 4.49c20.506-.667 40.724-2.122 60.09-4.324 5.487-.624 9.43-5.578 8.806-11.066-.624-5.487-5.571-9.425-11.066-8.806-17.078 1.942-34.847 3.287-52.901 4.005l-23.286-35.309a10.001 10.001 0 00-16.696 0l-23.286 35.309c-50.433-2.002-97.343-8.787-132.623-19.212-40.845-12.07-51.743-24.908-51.743-30.591 0-6.013 8.898-15.593 33.429-25.107 11.164 7.811 23.097 14.393 35.546 19.594 24.474 10.223 47.908 13.804 68.733 13.804 37.875 0 67.097-11.839 78.246-17.118 43.291 20.501 97.975 23.784 146.977 3.315 12.451-5.197 24.397-11.79 35.588-19.624 24.565 9.529 33.48 19.119 33.48 25.135 0 6.441-11.832 17.786-45.177 28.563-5.255 1.699-8.139 7.335-6.44 12.591 1.702 5.267 7.346 8.134 12.591 6.44 39.167-12.659 59.027-28.671 59.027-47.594 0-15.048-11.974-28.215-35.621-39.26 39.294-34.925 54.263-75.677 54.943-77.572a10 10 0 00-5.048-12.375c-1.794-.87-40.801-19.485-89.605-19.205 15.201-52.851 7.241-102.364 6.864-104.624a10 10 0 00-11.939-8.136c-2.168.46-48.999 10.684-91.86 42.398-15.516-61.71-54.487-105.885-56.276-107.889a9.998 9.998 0 00-14.915 0c-1.79 2.004-40.777 46.195-56.288 107.928-42.88-31.755-89.769-41.988-91.94-42.448a9.998 9.998 0 00-11.938 8.136c-.377 2.26-8.338 51.763 6.865 104.632-48.799-.284-87.812 18.337-89.606 19.207a10 10 0 00-5.492 7.341 9.997 9.997 0 00.551 5.308c8.745 23.334 29.123 54.424 54.884 77.324zm433.131-75.645c-18.912 39.553-51.868 73.542-93.485 90.912-35.633 14.884-73.233 15.638-108.842 5.185 29.931-11.014 76.732-34.101 106.3-77.495 6.618-9.712 12.318-20.437 17.005-31.938 34.132-1.638 64.591 7.861 79.022 13.336zm-112.555 7.338c-25.315 37.153-66.136 58.107-93.562 68.68 18.409-27.845 43.406-75.834 43.406-131.139 0-8.765-.659-17.751-1.94-26.785 29.634-24.299 63.972-36.816 80.99-41.939 3.67 44.106-3.634 94.119-28.894 131.183zM255.994 81.946c28.475 37.846 50 86.441 50 134.007 0 60.636-34.473 113.34-50.017 134.019-15.591-20.658-49.983-73.129-49.983-134.019.001-47.558 21.516-96.149 50-134.007zM106.87 147.208c17.014 5.103 51.327 17.594 81.055 42.007-1.275 8.998-1.931 17.969-1.931 26.739 0 46.957 18.109 92.694 43.58 131.265-27.402-10.51-68.363-31.452-93.826-68.817-25.23-37.021-32.525-86.876-28.878-131.194zm-4.649 110.528c4.706 11.527 10.403 22.249 17 31.929 29.567 43.386 76.364 66.475 106.295 77.491-24.883 7.274-65.255 13.034-108.837-5.171-41.419-17.301-74.344-50.916-93.483-90.93 14.401-5.484 44.778-14.973 79.025-13.319z"/><circle cx="385.995" cy="433.953" r="10"/></svg>