<?xml version="1.0" encoding="utf-8"?><svg xmlns="http://www.w3.org/2000/svg" width="13.63" height="12.29" viewBox="0 0 13.63 12.29"><defs><style>.bacls-1{fill:#21303d;fill-rule:evenodd}</style></defs><path id="bamegaphone" class="bacls-1" d="M1901.26 1615.54v.95l-11.16 2.24a1.371 1.371 0 00-1.09 1.34v1.85a1.371 1.371 0 001.09 1.34l.27.05v1.59a1.36 1.36 0 001.09 1.33l2.72.56a1.358 1.358 0 001.64-1.33v-1.06l5.44 1.1v.95a.681.681 0 00.68.68.683.683 0 00.69-.68v-10.91a.683.683 0 00-.69-.68.681.681 0 00-.68.68zm-6.8 9.11a.685.685 0 01-.82.67l-1.36-.28a.693.693 0 01-.55-.67v-.78l2.73.54v.52z" transform="translate(-1889 -1614.84)"/></svg>