<?xml version="1.0" encoding="utf-8"?><svg xmlns="http://www.w3.org/2000/svg" width="12.469" height="15.437" viewBox="0 0 12.469 15.437"><defs><style>.bgcls-1{fill:#f3f4f9;fill-rule:evenodd}</style></defs><path id="bgrub" class="bgcls-1" d="M831.786 355.943h2.156v1.826h-2.156v2.025h2.156v2.706h2.685v-2.706h3.608v-2.025h-3.608v-1.826h2.024c3.653 0 5.611-1.738 5.611-4.379 0-2.53-1.408-4.51-5.963-4.51-1.078 0-3.5.044-4.357.044v6.821h-2.156v2.024zm6.8-6.359c1.826 0 2.816.616 2.816 2.222 0 1.563-1.254 2.113-2.838 2.113h-1.936v-4.291c.725-.022 1.407-.044 1.957-.044z" transform="translate(-831.781 -347.063)"/></svg>