<?xml version="1.0" encoding="utf-8"?><svg xmlns="http://www.w3.org/2000/svg" width="20" height="20" viewBox="0 0 20 20"><defs><style>.bicls-1{fill:#21303d;fill-rule:evenodd}</style></defs><path id="biruler_4" data-name="ruler#4" class="bicls-1" d="M1966.56 421.292l-2.86-2.856-1.43-1.429-1.43 1.429-11.43 11.427-1.42 1.429 1.42 1.428 2.86 2.857 1.43 1.428 1.43-1.428 2.86-2.857 1.43-1.428 1.42-1.429 1.43-1.428 1.43-1.429 1.43-1.428 1.43-1.429 1.43-1.428zm-2.86 2.857l-1.43-1.428-1.43 1.428 1.43 1.429-1.43 1.428-1.42-1.428-1.43 1.428 1.43 1.429-1.43 1.428-1.43-1.428-1.43 1.428 1.43 1.429-2.86 2.856-2.86-2.856 11.43-11.428 2.86 2.857zm-9.29 6.428a1.007 1.007 0 11-1.42 0 1 1 0 011.42 0z" transform="translate(-1948 -417)"/></svg>