<?xml version="1.0" encoding="iso-8859-1"?><svg xmlns="http://www.w3.org/2000/svg" viewBox="0 0 512 512" width="512" height="512"><path d="M337.601 443.296V512h32v-59.296l21.008-32.688-26.912-17.312zM407.943 393.177l-26.915-17.309 17.309-26.915 26.915 17.31zM486.625 194.048l-.016-.032c-20.022-16.735-49.819-14.07-66.553 5.952a47.117 47.117 0 00-3.095 4.144l-43.472 65.2 36.192-153.808a49.74 49.74 0 001.296-11.2c.03-22.595-15.364-42.294-37.296-47.728-26.316-6.274-52.822 9.633-59.664 35.808l-24.416 97.648V48c0-26.51-21.49-48-48-48s-48 21.49-48 48v142.032l-24.416-97.6c-6.867-26.309-33.761-42.07-60.07-35.203-25.657 6.697-41.401 32.51-35.61 58.387l41.168 174.832-12.8-15.424c-18.698-22.436-52.044-25.466-74.48-6.768-22.436 18.698-25.466 52.044-6.768 74.48L113.601 454.4V512h32v-69.248L45.169 322.24a20.608 20.608 0 01-4.8-13.344c-.132-11.487 9.073-20.906 20.56-21.038a20.797 20.797 0 0116.352 7.646l25.68 30.896a26.927 26.927 0 0020.8 9.84c15.022.106 27.285-11.985 27.392-27.007v-.049a26.586 26.586 0 00-.752-6.4l-45.744-194.576c-2.236-9.243 3.445-18.548 12.688-20.784s18.548 3.445 20.784 12.688l37.04 148.112c3.437 13.714 17.341 22.046 31.055 18.609 11.384-2.853 19.369-13.081 19.377-24.817V48c0-8.837 7.163-16 16-16s16 7.163 16 16v194.016c.009 14.138 11.477 25.593 25.615 25.585a25.6 25.6 0 0024.817-19.377l37.04-148.128c2.363-9.21 11.744-14.76 20.954-12.398 9.043 2.32 14.589 11.426 12.502 20.526L336.241 288a28.727 28.727 0 00-.752 6.4c.105 15.022 12.369 27.114 27.39 27.008h.05a26.606 26.606 0 0022.4-12.176l58.24-87.344a15.31 15.31 0 0112.8-6.832c8.438.026 15.264 6.874 15.264 15.312 0 2.934-.844 5.805-2.432 8.272l-18.96 29.504 26.912 17.312 18.976-29.52c12.895-20.074 8.82-46.609-9.504-61.888z"/><path d="M442.55 339.275l-26.916-17.309 17.309-26.915 26.915 17.31z"/></svg>