<?xml version="1.0" encoding="utf-8"?><svg xmlns="http://www.w3.org/2000/svg" width="20" height="19" viewBox="0 0 20 19"><defs><style>.blcls-1{fill:#f3f4f9;fill-rule:evenodd}</style></defs><path id="blshopping_cart_plus_round" class="blcls-1" d="M2300 1965.9h-2l-3.53-6.33a1.034 1.034 0 00-1.37-.46 1.184 1.184 0 00-.37 1.51l2.95 5.28h-9.39l2.95-5.32a1.119 1.119 0 00-.37-1.47 1.037 1.037 0 00-1.36.5l-3.53 6.29h-2.01c-1.21 0-1.57 2.02.34 2.02l1.39 8.4a2 2 0 001.97 1.68h10.63a2 2 0 001.97-1.68l1.39-8.4c1.93 0 1.53-2.02.34-2.02zm-3.55 9.27a1.006 1.006 0 01-.98.82h-8.95a1.008 1.008 0 01-.99-.85l-1.19-7.22h13.48zm-8.47-3.22a1.012 1.012 0 011-1.01h1.01v-1.37a1 1 0 112 0v1.37h1a1.01 1.01 0 010 2.02h-1v.65a1 1 0 01-2 0v-.65h-1.01a1 1 0 01-1-1.01z" transform="translate(-2281 -1959)"/></svg>