<?xml version="1.0" encoding="utf-8"?><!DOCTYPE svg PUBLIC "-//W3C//DTD SVG 1.1//EN" "http://www.w3.org/Graphics/SVG/1.1/DTD/svg11.dtd"><svg viewBox="0 0 568.889 568.889" xmlns="http://www.w3.org/2000/svg" xmlns:xlink="http://www.w3.org/1999/xlink"><style>:root>svg{display:none}:root>svg:target{display:block}</style><svg version="1.1" id="Adwin-white" x="0" y="0" viewBox="0 0 70 20" xml:space="preserve" xmlns="http://www.w3.org/2000/svg"><style>.aast0{fill:#fff}</style><path class="aast0" d="M10.6 4.4l-1.2-2L8.7 1 8.6.9 8.1 0l-.5.9-.4.7-5.8 10-1.3 2.3c-.1.1-.1.3 0 .5l1.2 2 1.4 2.4.5-.9 7.5-13c0-.1 0-.3-.1-.5zM16.1 13.8l-2.4-4.1-.2-.3H9.2c-.5 0-.7.5-.5.9l.9 1.6 3.5 6 .5.9.5-.9 1.3-2.3.7-1.2c.1-.1.1-.4 0-.6zM30.9 11.8h-4.3l-.9 2.1h-1.2l3.7-8.2h1.2l3.7 8.2h-1.2l-1-2.1zm-.4-.9l-1.8-4-1.8 4h3.6zM34.9 5.7h3.4c.9 0 1.6.2 2.3.5.7.3 1.2.8 1.6 1.5.4.6.6 1.3.6 2.1s-.2 1.5-.6 2.1-.9 1.1-1.6 1.5c-.7.3-1.4.5-2.3.5h-3.4V5.7zm3.4 7.2c.7 0 1.3-.1 1.8-.4.5-.3.9-.6 1.2-1.1.3-.5.4-1 .4-1.6s-.1-1.2-.4-1.6c-.3-.5-.7-.8-1.2-1.1-.5-.3-1.1-.4-1.8-.4h-2.2v6.1l2.2.1zM56.5 5.7l-2.7 8.2h-1.2l-2.2-6.5-2.2 6.5h-1.3l-2.7-8.2h1.2l2.2 6.6 2.3-6.6H51l2.3 6.7 2.3-6.7h.9zM58.7 5.7h1.2v8.2h-1.2V5.7zM70 5.7v8.2h-1l-4.9-6.1v6.1H63V5.7h1l4.9 6.1V5.7H70z"/></svg><svg version="1.1" id="Fitnoteca-ico" x="0" y="0" viewBox="45.5 -80.7 131.4 258.4" xml:space="preserve" xmlns="http://www.w3.org/2000/svg"><style>.abst0{fill:#21303d}</style><path class="abst0" d="M65 177.7H45.5V67.2c0-11.3 2.2-22 6.2-31.8-4-9.8-6.2-20.6-6.2-31.8 0-46.5 37.8-84.3 84.3-84.3h36.7V2.6h-36.7c-24.1 0-45.2 13.3-56.3 32.9 11.1 19.6 32.2 32.9 56.3 32.9h12.5V88h-12.5c-25.6 0-48.6-11.5-64.1-29.6-.4 2.9-.6 6-.6 9v110.3H65zm64.8-238.9c-35.7 0-64.7 29-64.7 64.7 0 3.1.2 6.1.6 9 15.5-18.1 38.5-29.6 64.1-29.6H147v-44.1h-17.2z"/><path class="abst0" d="M65 152.5H45.5c0-46.5 37.8-84.3 84.3-84.3h12.5v19.6h-12.5c-35.7 0-64.8 29-64.8 64.7z"/><circle class="abst0" cx="166.9" cy="78.3" r="10"/></svg><svg viewBox="0 0 453.662 70.996" id="Logo-Saba" xmlns="http://www.w3.org/2000/svg"><path fill="#654725" d="M1.649 8.447S11.536.638 13.28 7.691l-1.188 31.254 21.123-.553s-3.573 4.922-3.244 8.678c0 0-5.812-7.797-24.637-1.766l.324-28.888s-.433-6.992-4.054-4.369c0 .003-3.639-1.927.045-3.6M50.854 40.18s-5.531 4.735-8.887-.854c0 0-3.634-6.892 4.424-8.745 0 0 3.264.031 6.557 3.04 0 0-1.16 15.196 12.16 10.675l3.31-3.375s-6.577 6.322-9.157-2.135l-1.625-9.617s-.428-3.023-9.455-3.023c0 0-8.178-.311-13.153 9.646 0 0-3.205 8.929 6.974 9.516-.002-.001 8.317-.958 8.852-5.128M107.545 1.022s-1.179 5.773-5.207 3.195c0 0-9.022-6.787-20.251 5.413 0 0-3.903 10.803 6.53 12.681 0 0 20.437 3.716 17.965 9.642 0 0 2.822 10.595-14.42 7.582 0 0-9.646-1.717-8.475-7.512 0 0-7.811 1.713-8.358 6.372 0 0 3.838-.461 8.329 4.015 0 0 11.528 8.6 24.05-3.742 0 0 6.564-7.611.058-16.406 0 0-4.309-5.275-15.877-5.708 0 0-7.652-1.251-2.766-8.808 0 0 4.467-5.5 10.469-.283 0 0 6.067 10.885 9.23 1.617.001-.002 2.596-4.592-1.277-8.058M112.407 24.681s7.232-1.942 6.847 3.995c0 0-2.35 14.592 5.038 11.357 0 0 5.48-.885 6.156-5.903 0 0 1.393-7.483-2.458-6.335 0 0 3.712-6.311 6.956-2.848 0 0-.564 19.548 4.478 15.591l-5.72 6.004-4.332-7.444s-7.206 10.897-13.956 3.075c0 0-2.045-3.271-1.358-8.28-.001 0 1.747-7.009-1.651-9.212M138.911 8.332s5.096-.732 8.822-5.162l1.535 2.904s-4.051 31.457 1.142 32.462c0 0 .323 2.649 10.061 1.539l-4.507 4.289s-11.85 3.694-13.523-5.216l.926-18.756s1.471-10.486-4.166-8.999c-.001 0-2.732-.958-.29-3.061"/><path fill="#654725" d="M153.623 28.097s3.676-9.108 16.66-8.04c0 0 8.818 2.578 14.333-2.238 0 0-5.407 10.729-14.6 7.73 0 0-9.852 10.926-.238 13.934 0 0 .694 2.19 10.172-.303 0 0-3.102 5.323-9.645 5.866 0 0-8.223 2.106-11.016-8.203 0 0 .37-7.593 7.482-11.464.001 0-1.773-5.573-13.148 2.718M197.45 40.292s-5.585 4.733-8.918-.885c0 0-3.541-6.97 4.502-8.746 0 0 3.248.061 6.542 3.135 0 0-1.254 15.156 12.081 10.75l3.312-3.36s-6.614 6.301-9.123-2.207l-1.547-9.61s-.401-3.063-9.457-3.11c0 0-8.124-.346-13.212 9.542 0 0-3.268 8.919 6.9 9.578.002-.001 8.361-.883 8.92-5.087"/><path fill="#654725" d="M210.334 31.54s3.297-1.63 3.12 5.991l.165 9.303 7.071-5.742s-3.437-8.528 1.87-9.662c0 0 6.601-4.032 7.218 4.001l.111 11.44s6.586-3.23 7.071-6.145c0 0 .437-17.766-8.17-14.629 0 0-1.215-.876-10.314 5.236 0 0 .972-6.737-2.75-3.451l-5.392 3.658zM245.062 33.283s.309-3.146 4.1-4.672c3.812-1.56 6.607 1.665 7.729 2.827L245 34.129l.062-.846zm.839 7.065s-1.526-1.396-1.457-4.368l17.25-3.637s-4.969-8.344-14.997-5.905c0 0-8.994 2.543-7.916 13.458 0 0 2.356 8.092 12.454 6.916 0 0 4.474.021 7.019-5.479 0 0-5.285 6.528-12.353-.985M304.324 33.171s.321-3.179 4.149-4.679c3.799-1.528 6.545 1.744 7.664 2.913l-11.887 2.611.074-.845zm.77 7.052s-1.51-1.421-1.413-4.37l17.28-3.539s-4.916-8.352-14.976-5.985c0 0-9.012 2.464-7.985 13.407 0 0 2.308 8.068 12.392 7.02 0 0 4.485.008 7.047-5.441-.001-.003-5.324 6.436-12.345-1.092M288.793 26.675s-6.762-2.202-13.196 1.942c0 0-8.623 6.29-1.771 14.591 0 0 4.387 5.422 11.584-1.687 0 0-6.449 3.521-9-1.09 0 0-4.179-7.1 4.68-11.297 0 0 7.3-2.05 9.271 5.535 0 0 1.709 5.033-1.873 9.117 0 0 6.115 1.334 6.584 3.25l2.945-3.877s-3.226.916-2.898-3.938l.05-29.623s-.295-4.619-1.722-4.808l-7.387 6.884s3.252.161 3.738 4.611c.001.005 2.84 9.868-1.005 10.39M361.367 0s-.664 5.842-4.916 3.632c0 0-9.586-5.864-19.691 7.379 0 0-2.897 11.14 7.685 12.003 0 0 20.664 1.696 18.731 7.85 0 0 3.748 10.266-13.719 8.942 0 0-9.72-.779-9.074-6.636 0 0-7.631 2.462-7.766 7.125 0 0 3.795-.785 8.655 3.177 0 0 12.254 7.491 23.595-5.994 0 0 5.868-8.229-1.414-16.374 0 0-4.752-4.833-16.277-4.134 0 0-7.731-.525-3.547-8.512 0 0 3.916-5.913 10.373-1.3 0 0 7.024 10.255 9.34.729 0 .001 2.18-4.828-1.975-7.887M384.742 40.042s-5.57 4.729-8.931-.887c0 0-3.576-6.938 4.48-8.729 0 0 3.27.042 6.555 3.106 0 0-1.229 15.169 12.098 10.726l3.312-3.355s-6.592 6.283-9.135-2.201l-1.574-9.618s-.403-3.062-9.424-3.094c0 0-8.147-.326-13.222 9.583 0 0-3.27 8.923 6.908 9.552.003 0 8.342-.9 8.933-5.083M436.115 40.091s-5.578 4.744-8.908-.875c0 0-3.557-6.943 4.506-8.717 0 0 3.262.026 6.535 3.106 0 0-1.262 15.165 12.074 10.734l3.34-3.321s-6.604 6.272-9.146-2.203l-1.551-9.654s-.385-3.041-9.418-3.111c0 0-8.176-.333-13.221 9.585 0 0-3.298 8.896 6.881 9.55 0-.003 8.328-.891 8.908-5.094"/><path fill="#654725" d="M395.233 11.715s3.892-.031 4.254 9.128l-.489 17.753s.459 4.508 4.94 7.194c0 0 13.09 3.789 15.648-15.913 0 0-3.26-14.546-14.709 2.679 0 0 8.291-7.777 9.688-1.461 0 0 3.537 4.646-2.851 10.792 0 0-6.271 3.236-8.209-6.707 0 0 4.688-23.962.552-28.765l-1.465-1.665-7.359 6.965zM190.146 66.458v3.601c0 1.026-1.613 1.006-1.613.021V57.203c0-.469.381-.777.833-.777h4.848c3.871 0 5.681 2.562 5.681 5.137 0 2.684-1.834 4.896-5.746 4.896l-4.003-.001zm0-1.457h4.004c2.972 0 4.203-1.746 4.155-3.44-.017-1.838-1.473-3.688-4.066-3.688h-4.092l-.001 7.128zM207.125 66.902l-1.811 3.535c-.402.823-1.878.244-1.473-.648l6.752-13.303c.132-.291.442-.426.733-.426.294 0 .56.135.719.426l6.726 13.24c.581.955-1.07 1.516-1.496.646l-1.747-3.473h-8.403v.003zm4.202-8.449l-3.529 7.041h7.043l-3.514-7.041zM226.743 65.675v4.336c0 1.027-1.631 1.027-1.631.021v-12.83c0-.47.335-.777.832-.777h5.292c3.873 0 5.844 2.185 5.844 4.804 0 2.258-1.229 3.888-3.979 4.356l3.621 3.91c.848.854-.381 1.834-1.117 1.08l-4.52-4.898h-4.341l-.001-.002zm0-1.411h4.521c2.924 0 4.203-1.361 4.157-3.035-.021-1.836-1.563-3.312-4.157-3.312h-4.521v6.347zM244.155 56.732c0-1.117 1.674-1.097 1.674 0V70.1c0 1.032-1.674 1.073-1.674 0V56.732zM253.708 67.13c.574 1.854 3.057 2.252 4.844 2.252 1.905 0 4.854-.573 4.854-2.836 0-1.942-2.345-2.103-4.806-2.305-3.092-.242-6.396-.533-6.396-3.865 0-2.951 3.402-4.276 6.132-4.276 2.34 0 5.271.562 6.214 3.116.332.892-1.184 1.291-1.521.535-.668-1.705-3.062-1.996-4.674-1.996-1.496 0-4.401.606-4.401 2.644 0 1.944 2.229 2.147 4.825 2.349 3.064.267 6.354.428 6.354 3.778 0 3.418-3.823 4.47-6.579 4.47-2.275 0-5.767-.781-6.5-3.472-.271-.978 1.474-1.314 1.654-.394"/></svg><svg viewBox="0 0 512.042 512.042" id="ankle" xmlns="http://www.w3.org/2000/svg"><path d="M378.412.63l30.867 8.434-8.085 29.587-30.867-8.436zM361.923 61.094l30.868 8.435-8.431 30.852-30.868-8.435zM472.884 405.597v.08l-79.104-22.576-31.2-202.832 11.2-41.296-30.864-8.416-13.056 47.872 35.36 229.792 98.8 28.24c11.647 3.336 18.384 15.482 15.048 27.128a21.936 21.936 0 01-21.064 15.896h-122.56a50.594 50.594 0 01-44.208-26l-18.688-33.6a307.395 307.395 0 00-137.056-128.864l-85.984-41.088a58.05 58.05 0 01-17.504-41.456c-.272-31.26 23.753-57.371 54.928-59.696l54.4-4.192L191.06 12.045 161.092.845l-42.544 113.408-34.096 2.624C36.535 120.33-.441 160.438.004 208.477a89.871 89.871 0 0029.408 66.544l92.288 44.8a275.582 275.582 0 01122.944 115.52l18.688 33.6a82.575 82.575 0 0072.176 42.464h122.56c29.788.021 53.953-24.11 53.974-53.898.017-24.11-15.97-45.304-39.158-51.91z"/><path d="M176.004 158.221v32c0 26.51 21.49 48 48 48h32v-32h-32c-8.837 0-16-7.163-16-16v-32h-32z"/></svg><svg viewBox="0 0 10.03 30.031" id="arrow_down" xmlns="http://www.w3.org/2000/svg"><defs><style>.aecls-1{fill-rule:evenodd}</style></defs><path id="aearrow_down" class="aecls-1" d="M1097.17 630.95l-1.48 1.414a.5.5 0 01-.84-.363v-24.914a1 1 0 00-1.01-1h.01a1 1 0 00-1 1v24.9a.51.51 0 01-.86.36l-1.47-1.4a.994.994 0 00-1.41.039h-.01a.991.991 0 00.05 1.4l3.34 3.181a2.006 2.006 0 002.76-.008l3.29-3.152a.992.992 0 00.04-1.391l-.01-.011a.988.988 0 00-1.4-.055z" transform="translate(-1088.81 -606.094)"/></svg><svg viewBox="0 0 20 20" id="arrow_left_up_right_down" xmlns="http://www.w3.org/2000/svg"><defs><style>.afcls-1{fill:#21303d;fill-rule:evenodd}</style></defs><path id="afarrow_left_up_right_down" class="afcls-1" d="M1398.01 161h8v-2h-4.59l4.55-4.546-1.41-1.413-4.55 4.546v-4.583h-2v8zm12-17.99h4.58l-4.58 4.584 1.41 1.413 4.58-4.583v4.583h2v-8h-7.99v2z" transform="translate(-1398 -141)"/></svg><svg viewBox="0 0 20 10" id="arrow_right" xmlns="http://www.w3.org/2000/svg"><defs><style>.agcls-1{fill:#21303d;fill-rule:evenodd}</style></defs><path id="agarrow_right" class="agcls-1" d="M2545.8 4374.68l1.42 1.49a.487.487 0 01-.36.83h-15.03a.873.873 0 00-.84 1 .873.873 0 00.84 1h15.01a.506.506 0 01.36.86l-1.41 1.46a.979.979 0 00.04 1.41 1 1 0 001.41-.04l3.2-3.34a1.993 1.993 0 000-2.76l-3.18-3.28a1 1 0 00-1.4-.04l-.01.01a.976.976 0 00-.05 1.4z" transform="translate(-2531 -4373)"/></svg><svg viewBox="0 0 11 20" id="arrow_right-menu" xmlns="http://www.w3.org/2000/svg"><defs><style>.ahcls-1{fill:#21303d;fill-rule:evenodd}</style></defs><path id="aharrow_right" class="ahcls-1" d="M1072.4 2189l-1.39 1.4 8.26 8.61-.89.91h.01l-7.34 7.64 1.37 1.43c2.03-2.11 7.69-8.01 9.58-9.98-1.4-1.47-.03-.04-9.6-10.01z" transform="translate(-1071 -2189)"/></svg><svg viewBox="0 0 512 512" id="biceps" xmlns="http://www.w3.org/2000/svg"><path d="M428.847 22.809C420.929 8.74 405.827 0 389.433 0H256.961c-24.813 0-45 20.187-45 45v60c0 24.813 20.187 45 45 45h90c8.271 0 15 6.729 15 15v117.833c-43.251-11.824-88.843-13.285-132.67-4.37-33.393-31.953-80.688-44.952-127.917-33.143-47.222 11.807-86.413 50.342-97.63 98.306-9.646 41.258-.242 83.755 25.804 116.593C55.647 493.126 94.434 512 135.961 512c195.815 0 331.363-74.406 367.708-92.583A15 15 0 00511.961 406v-65.072c0-111.512-28.741-221.516-83.114-318.119zm53.114 373.948C433.23 421.303 309.867 482 135.961 482c-32.314 0-62.533-14.734-82.91-40.425-20.32-25.62-27.645-58.832-20.095-91.12 8.482-36.278 38.902-66.833 75.694-76.033 30.208-7.554 60.493-2.388 84.948 13.753a280.993 280.993 0 00-34.345 14.407c-7.41 3.705-10.413 12.715-6.708 20.125 3.704 7.409 12.714 10.413 20.124 6.708 71.253-35.626 156.329-35.627 227.584 0 7.422 3.712 16.426.688 20.124-6.708 3.705-7.41.702-16.42-6.708-20.125a280.554 280.554 0 00-21.708-9.719V165c0-24.813-20.187-45-45-45h-15V75c0-8.284-6.716-15-15-15h-30c-8.284 0-15 6.716-15 15s6.716 15 15 15h15v30h-45c-8.271 0-15-6.729-15-15V45c0-8.271 6.729-15 15-15h132.473c5.573 0 10.658 2.883 13.271 7.523 51.851 92.121 79.257 197.036 79.257 303.405v55.829z"/></svg><svg class="ajcss-tcp77x" viewBox="0 0 16 14" id="cart" xmlns="http://www.w3.org/2000/svg"><g fill-rule="nonzero" fill="currentColor"><path d="M15.56 3.743a.599.599 0 00-.469-.224H4.91l-.323-1.6C4.388.907 3.478.172 2.421.172h-.894A.591.591 0 00.93.76c0 .325.267.587.596.587h.894c.495 0 .905.328.996.796v.004l1.338 6.63c.178.882.97 1.523 1.882 1.523h6.03c.873 0 1.636-.581 1.857-1.413l.002-.01 1.144-4.632a.58.58 0 00-.11-.501zM6.088 11.552c-.632 0-1.146.51-1.146 1.138 0 .627.514 1.138 1.146 1.138.631 0 1.145-.51 1.145-1.138 0-.628-.514-1.138-1.145-1.138zM11.817 11.552c-.632 0-1.146.51-1.146 1.138 0 .627.514 1.138 1.146 1.138.632 0 1.146-.51 1.146-1.138 0-.628-.514-1.138-1.146-1.138z"/></g></svg><svg viewBox="0 0 10 8" id="check" xmlns="http://www.w3.org/2000/svg"><defs><style>.akcls-1{fill:#21303d;fill-rule:evenodd}</style></defs><path id="akdone_mini" class="akcls-1" d="M975.989 914.6l-6.151 6.384-3.845-3.984 1.537-1.6 2.307 2.394 4.614-4.789z" transform="translate(-966 -913)"/></svg><svg viewBox="0 0 512.001 512.001" id="checklist" xmlns="http://www.w3.org/2000/svg"><path d="M400.003 152H256.001c-5.523 0-10 4.477-10 10s4.477 10 10 10h144.002c5.523 0 10-4.477 10-10s-4.477-10-10-10zM365.011 202.931c-1.86-1.86-4.44-2.93-7.07-2.93s-5.21 1.07-7.07 2.93c-1.86 1.86-2.93 4.44-2.93 7.07s1.07 5.21 2.93 7.07 4.44 2.93 7.07 2.93 5.21-1.07 7.07-2.93c1.86-1.86 2.93-4.44 2.93-7.07s-1.07-5.21-2.93-7.07zM263.061 45.931c-1.86-1.86-4.44-2.93-7.07-2.93s-5.21 1.07-7.07 2.93c-1.86 1.86-2.93 4.44-2.93 7.07s1.07 5.21 2.93 7.07c1.86 1.86 4.44 2.93 7.07 2.93s5.21-1.07 7.07-2.93c1.86-1.86 2.93-4.44 2.93-7.07s-1.07-5.21-2.93-7.07zM315.878 200h-59.877c-5.523 0-10 4.477-10 10s4.477 10 10 10h59.877c5.523 0 10-4.477 10-10s-4.477-10-10-10zM400.003 260H256.001c-5.523 0-10 4.477-10 10s4.477 10 10 10h144.002c5.523 0 10-4.477 10-10s-4.477-10-10-10zM365.011 310.931c-1.86-1.86-4.44-2.93-7.07-2.93s-5.21 1.07-7.07 2.93c-1.86 1.86-2.93 4.44-2.93 7.07s1.07 5.21 2.93 7.07 4.44 2.93 7.07 2.93 5.21-1.07 7.07-2.93c1.86-1.86 2.93-4.44 2.93-7.07s-1.07-5.21-2.93-7.07zM315.878 308h-59.877c-5.523 0-10 4.477-10 10s4.477 10 10 10h59.877c5.523 0 10-4.477 10-10s-4.477-10-10-10zM400.003 368H256.001c-5.523 0-10 4.477-10 10s4.477 10 10 10h144.002c5.523 0 10-4.477 10-10s-4.477-10-10-10zM365.011 418.931c-1.86-1.86-4.44-2.93-7.07-2.93s-5.21 1.07-7.07 2.93c-1.86 1.86-2.93 4.44-2.93 7.07s1.07 5.21 2.93 7.07 4.44 2.93 7.07 2.93 5.21-1.07 7.07-2.93c1.86-1.86 2.93-4.44 2.93-7.07s-1.07-5.21-2.93-7.07zM315.878 416h-59.877c-5.523 0-10 4.477-10 10s4.477 10 10 10h59.877c5.523 0 10-4.477 10-10s-4.477-10-10-10z"/><path d="M419.243 39.001h-76.379C331.823 28.48 316.898 22 300.479 22h-8.76C285.022 8.742 271.263 0 256 0s-29.021 8.742-35.719 22H211.5c-16.419 0-31.343 6.48-42.384 17.001H92.759c-26.885 0-48.758 21.873-48.758 48.758v375.484c0 26.885 21.873 48.758 48.758 48.758h326.483c26.885 0 48.758-21.873 48.758-48.758V87.759c.001-26.885-21.872-48.758-48.757-48.758zM211.501 42h15.586a10 10 0 009.639-7.338C239.111 26.029 247.037 20 256.001 20c8.964 0 16.89 6.029 19.274 14.662A10 10 0 00284.914 42h15.565c21.705 0 39.571 16.75 41.354 38.001H170.147C171.93 58.75 189.797 42 211.501 42zm236.5 421.244c0 15.857-12.901 28.758-28.758 28.758H92.759c-15.857 0-28.758-12.901-28.758-28.758V87.759c0-15.857 12.901-28.758 28.758-28.758h62.347a61.135 61.135 0 00-5.105 24.5v6.5c0 5.523 4.477 10 10 10H351.98c5.523 0 10-4.477 10-10v-6.5a61.139 61.139 0 00-5.105-24.5h62.368c15.857 0 28.758 12.901 28.758 28.758v375.485z"/><path d="M192.41 149.596c-3.905-3.905-10.237-3.905-14.142-.001l-42.762 42.763-13.173-13.174c-3.905-3.904-10.237-3.904-14.143 0-3.905 3.905-3.905 10.237 0 14.143l20.245 20.245a9.968 9.968 0 007.071 2.929 9.966 9.966 0 007.071-2.929l49.833-49.833c3.905-3.905 3.905-10.237 0-14.143zM168.001 368h-48c-5.523 0-10 4.477-10 10v48c0 5.523 4.477 10 10 10h48c5.523 0 10-4.477 10-10v-48c0-5.523-4.477-10-10-10zm-10 48h-28v-28h28v28zM168.001 260h-48c-5.523 0-10 4.477-10 10v48c0 5.523 4.477 10 10 10h48c5.523 0 10-4.477 10-10v-48c0-5.523-4.477-10-10-10zm-10 48h-28v-28h28v28z"/></svg><svg viewBox="0 0 512 512" id="chin" xmlns="http://www.w3.org/2000/svg"><path d="M480 0v105.104a239.023 239.023 0 01-88.944 186.512l-97.728 79.168c-21.956 17.077-52.7 17.077-74.656 0l-97.728-79.168A239.027 239.027 0 0132 105.104V0H0v105.104a270.596 270.596 0 0096 207.024V448h32V338.512l70.544 57.152c33.505 27.117 81.407 27.117 114.912 0L384 338.512V448h32V312.128a270.596 270.596 0 0096-207.024V0h-32z"/><path d="M176.272 214.704A87.71 87.71 0 00256 256a87.697 87.697 0 0079.616-41.136 121.571 121.571 0 0030.304 3.92H368v-32h-2.08a90.26 90.26 0 01-43.024-10.976L299.2 163.2l-2.592-1.104a40.88 40.88 0 00-37.04 5.984 42.912 42.912 0 00-3.632 2.944 42.912 42.912 0 00-3.632-2.944 40.832 40.832 0 00-37.04-5.984l-27.504 14.176A92.027 92.027 0 01144 186.8l1.6 32a120.653 120.653 0 0030.672-4.096zm50-22.512a9.075 9.075 0 017.312 1.744A17.181 17.181 0 01240 208h32a17.185 17.185 0 016.4-14.08 8.895 8.895 0 017.264-1.744l19.632 10.512A57.392 57.392 0 01256 224a56.738 56.738 0 01-49.456-21.472l19.728-10.336zM272 96h48V64h-48c-8.837 0-16-7.163-16-16V0h-32v48c0 26.51 21.491 48 48 48zM96 480h32v32H96zM384 480h32v32h-32z"/></svg><svg viewBox="0 0 511.992 511.992" id="clock" xmlns="http://www.w3.org/2000/svg"><path d="M511.005 279.646c-4.597-46.238-25.254-89.829-58.168-122.744-28.128-28.127-62.556-46.202-98.782-54.239V77.255c14.796-3.681 25.794-17.074 25.794-32.993 0-18.748-15.252-34-34-34h-72c-18.748 0-34 15.252-34 34 0 15.918 10.998 29.311 25.793 32.993v25.479c-36.115 8.071-70.429 26.121-98.477 54.169a202.966 202.966 0 00-16.979 19.269 9.99 9.99 0 00-.758-.038H78.167c-5.522 0-10 4.477-10 10s4.478 10 10 10h58.412a200.467 200.467 0 00-17.744 38.436H10c-5.522 0-10 4.477-10 10s4.478 10 10 10h103.184a203.324 203.324 0 00-4.963 38.437H64c-5.522 0-10 4.477-10 10s4.478 10 10 10h44.54a203.025 203.025 0 006.244 38.437H50c-5.522 0-10 4.477-10 10s4.478 10 10 10h71.166c9.81 25.951 25.141 50.274 45.999 71.132 32.946 32.946 76.582 53.608 122.868 58.181 6.606.652 13.217.975 19.819.975 39.022 0 77.548-11.293 110.238-32.581 4.628-3.014 5.937-9.209 2.923-13.837s-9.209-5.937-13.837-2.923c-71.557 46.597-167.39 36.522-227.869-23.957-70.962-70.962-70.962-186.425 0-257.388 70.961-70.961 186.424-70.961 257.387 0 60.399 60.4 70.529 156.151 24.086 227.673-3.008 4.632-1.691 10.826 2.94 13.833 4.634 3.008 10.826 1.691 13.833-2.941 24.814-38.215 35.984-84.37 31.452-129.965zM259.849 44.263c0-7.72 6.28-14 14-14h72c7.72 0 14 6.28 14 14s-6.28 14-14 14h-72c-7.72 0-14-6.281-14-14zm25.793 55.033V78.263h48.413V99.26a203.755 203.755 0 00-48.413.036z"/><path d="M445.77 425.5c-2.64 0-5.21 1.07-7.069 2.93a10.034 10.034 0 00-2.931 7.07c0 2.63 1.061 5.21 2.931 7.07a10.013 10.013 0 007.069 2.93c2.63 0 5.2-1.06 7.07-2.93 1.86-1.86 2.93-4.44 2.93-7.07s-1.069-5.21-2.93-7.07a10.095 10.095 0 00-7.07-2.93zM310.001 144.609c-85.538 0-155.129 69.59-155.129 155.129s69.591 155.129 155.129 155.129 155.129-69.59 155.129-155.129-69.591-155.129-155.129-155.129zm0 290.258c-74.511 0-135.129-60.619-135.129-135.129s60.618-135.129 135.129-135.129S445.13 225.228 445.13 299.738s-60.618 135.129-135.129 135.129z"/><path d="M373.257 222.34l-49.53 49.529a30.885 30.885 0 00-13.726-3.205 30.882 30.882 0 00-13.726 3.205l-22.167-22.167c-3.906-3.905-10.236-3.905-14.143 0-3.905 3.905-3.905 10.237 0 14.142l22.167 22.167a30.871 30.871 0 00-3.205 13.726c0 17.134 13.939 31.074 31.074 31.074s31.074-13.94 31.074-31.074c0-4.925-1.157-9.584-3.205-13.726l48.076-48.076 1.453-1.453c3.905-3.905 3.905-10.237 0-14.142s-10.235-3.905-14.142 0zm-63.256 88.472c-6.106 0-11.074-4.968-11.074-11.074s4.968-11.074 11.074-11.074 11.074 4.968 11.074 11.074-4.968 11.074-11.074 11.074zM416.92 289.86h-9.265c-5.522 0-10 4.477-10 10s4.478 10 10 10h9.265c5.522 0 10-4.477 10-10s-4.478-10-10-10zM212.346 289.616h-9.264c-5.522 0-10 4.477-10 10s4.478 10 10 10h9.264c5.522 0 10-4.477 10-10s-4.478-10-10-10zM310.123 212.083c5.522 0 10-4.477 10-10v-9.264c0-5.523-4.478-10-10-10s-10 4.477-10 10v9.264c0 5.523 4.478 10 10 10zM309.879 387.393c-5.522 0-10 4.477-10 10v9.264c0 5.523 4.478 10 10 10s10-4.477 10-10v-9.264c0-5.523-4.478-10-10-10zM10 351.44c-2.63 0-5.21 1.07-7.07 2.93A10.076 10.076 0 000 361.44c0 2.64 1.069 5.21 2.93 7.07s4.44 2.93 7.07 2.93 5.21-1.07 7.069-2.93c1.86-1.86 2.931-4.44 2.931-7.07s-1.07-5.21-2.931-7.07A10.072 10.072 0 0010 351.44z"/></svg><svg viewBox="0 0 512 512" id="conjunctivitis" xmlns="http://www.w3.org/2000/svg"><path d="M510.18 210.149c-38.718-55.049-84.509-95.792-136.102-121.097-49.557-24.307-103.442-33.05-155.841-25.281-5.463.81-9.235 5.895-8.426 11.357.81 5.463 5.892 9.242 11.358 8.426 77.823-11.534 154.674 15.703 218.903 75.793-1.46 5.314-4.087 10.397-7.641 14.653-4.469 5.326-10.023 8.99-15.642 10.316l-.019.005-.008.001c-8.583 2.051-16.772 7.317-23.06 14.829-6.106 7.295-10.173 16.449-11.452 25.777-.75 5.472 3.077 10.516 8.549 11.266.461.063.919.094 1.371.094 4.92 0 9.208-3.632 9.895-8.643.774-5.648 3.251-11.209 6.974-15.656 3.548-4.239 7.942-7.156 12.373-8.216l.016-.005c.217-.052.433-.114.65-.169 1.377 2.586 2.253 5.697 2.512 9.107.411 5.688-.877 11.682-3.628 16.878-2.583 4.881-.721 10.933 4.161 13.517a9.958 9.958 0 004.669 1.163c3.586 0 7.053-1.935 8.848-5.324 4.546-8.591 6.586-18.161 5.896-27.714-.46-6.049-2.062-11.741-4.635-16.7a55.634 55.634 0 007.868-7.692 59.061 59.061 0 007.79-12.099c11.908 12.548 23.321 26.278 34.147 41.166-25.697 35.351-54.755 64.368-86.531 86.468-1.986-2.85-3.879-5.408-5.611-7.569-4.161-5.21-10.769-12.139-20.077-12.146h-.015c-9.305 0-15.929 6.923-20.103 12.133-7.575 9.453-18.132 26.181-26.784 44.069-90.433 29.376-182.976 4.728-258.701-66.329a39.461 39.461 0 017.698-14.742c4.437-5.313 9.975-8.97 15.594-10.298 8.602-2.02 16.808-7.295 23.091-14.837 6.149-7.347 10.218-16.515 11.457-25.815.729-5.475-3.118-10.504-8.592-11.232-5.476-.729-10.504 3.117-11.233 8.592-.745 5.594-3.22 11.141-6.983 15.637-3.538 4.247-7.912 7.154-12.316 8.187l-.012.003h-.003c-.226.053-.45.119-.675.176-1.384-2.592-2.257-5.706-2.504-9.138-.428-5.631.861-11.611 3.629-16.841 2.583-4.882.721-10.933-4.16-13.517-4.881-2.585-10.932-.72-13.517 4.159-4.577 8.647-6.616 18.23-5.898 27.676.436 6.051 2.034 11.754 4.622 16.733a55.095 55.095 0 00-7.852 7.697 59.419 59.419 0 00-7.82 12.135C44.536 244.557 33.133 230.82 22.29 215.9c34.01-46.814 73.507-82.24 117.48-105.346 4.889-2.569 6.77-8.615 4.201-13.504-2.569-4.89-8.617-6.768-13.503-4.201-48.597 25.536-91.88 65.002-128.648 117.302a10 10 0 000 11.503c15.826 22.509 33.077 42.773 51.464 60.593a10 10 0 001.634 1.584c32.346 30.978 68.172 54.389 105.998 68.992 31.015 11.973 63.033 17.97 95.07 17.969 21.671-.001 43.352-2.752 64.73-8.247-3.369 9.888-5.48 19.304-5.48 27.183 0 18.809 6.828 34.707 19.747 45.977 11.294 9.852 26.381 15.277 42.479 15.277 30.924 0 62.228-21.04 62.228-61.254 0-19.452-12.852-48.257-25.785-70.448 35.687-24.684 68.043-57.477 96.276-97.626a10.005 10.005 0 00-.001-11.505zM377.462 430.982c-21.019 0-42.227-12.756-42.227-41.254 0-20.495 22.544-63.466 37.742-82.434l.001-.001c2.376-2.965 3.838-4.081 4.492-4.48.651.4 2.108 1.518 4.476 4.481 15.198 18.967 37.743 61.938 37.743 82.434 0 28.498-21.208 41.254-42.227 41.254z"/><path d="M255.986 264.016c26.505 0 48.069-21.584 48.069-48.114s-21.563-48.114-48.069-48.114c-26.505 0-48.068 21.584-48.068 48.114s21.563 48.114 48.068 48.114zm0-76.228c15.477 0 28.069 12.612 28.069 28.114s-12.592 28.114-28.069 28.114-28.068-12.612-28.068-28.114 12.591-28.114 28.068-28.114z"/><path d="M255.986 320.804c57.781 0 104.789-47.059 104.789-104.902S313.767 111 255.986 111s-104.789 47.059-104.789 104.902 47.008 104.902 104.789 104.902zm0-189.804c46.752 0 84.789 38.087 84.789 84.902s-38.036 84.902-84.789 84.902-84.789-38.087-84.789-84.902S209.233 131 255.986 131zM175.994 94.163h.028c5.523 0 9.986-4.478 9.986-10s-4.491-10-10.014-10-10 4.478-10 10 4.477 10 10 10z"/></svg><svg viewBox="0 0 512 512" id="cosmetic" xmlns="http://www.w3.org/2000/svg"><path d="M224 42.667h-10.667v-32C213.333 4.776 208.558 0 202.667 0h-85.333c-5.891 0-10.667 4.776-10.667 10.667v32H96c-41.218.047-74.62 33.449-74.667 74.667V480c0 17.673 14.327 32 32 32h181.333v-21.333H53.333c-5.891 0-10.666-4.776-10.666-10.667v-42.667h106.667c5.891 0 10.667-4.776 10.667-10.667V160c0-5.891-4.776-10.667-10.667-10.667H42.667v-32H192V96H47.14C55.381 77.183 74.147 64.026 96 64h128c21.853.026 40.619 13.183 48.86 32h-59.527v21.333h64v149.333h21.333V117.333C298.62 76.116 265.218 42.714 224 42.667zm-85.333 128V416h-96V170.667h96zM192 42.666h-64V21.333h64v21.333z"/><path d="M405.333 277.938V160c0-5.891-4.776-10.667-10.667-10.667H352c-5.891 0-10.667 4.776-10.667 10.667v117.937c-47.973 5.353-85.279 46.007-85.333 95.396v128c0 5.891 4.776 10.667 10.667 10.667H480c5.891 0 10.667-4.776 10.667-10.667v-128c-.055-49.388-37.361-90.043-85.334-95.395zm-42.666-107.271H384V192h-21.333v-21.333zm0 42.666H384v64h-21.333v-64zM277.333 416h117.333v32H277.333v-32zm192.001 74.667H277.333v-21.333h128c5.891 0 10.667-4.776 10.667-10.667v-53.333c0-5.891-4.776-10.667-10.667-10.667h-128v-21.333h149.333V352H280.465c9.204-30.817 37.733-53.295 71.535-53.333h42.667c41.218.047 74.62 33.449 74.667 74.667v117.333zM234.67 149.33h21.333v21.333H234.67zM192 149.33h21.333v21.333H192zM234.67 192h21.333v21.333H234.67z"/></svg><svg viewBox="0 0 20 20" id="done_mini" xmlns="http://www.w3.org/2000/svg"><defs><style>.aqcls-1{fill:#f3f4f9;fill-rule:evenodd}</style></defs><path id="aqdone_mini" class="aqcls-1" d="M1510 817a10 10 0 1110.01-10 10 10 0 01-10.01 10zm0-18a8 8 0 108.01 8 8.011 8.011 0 00-8.01-8zm-1.16 11.985l-3.85-3.985 1.54-1.6 2.31 2.394 4.61-4.788 1.54 1.6-6.15 6.384z" transform="translate(-1500 -797)"/></svg><svg viewBox="0 0 10.47 6.25" id="drop" xmlns="http://www.w3.org/2000/svg"><defs><style>.arcls-1{fill:#21303d;fill-rule:evenodd}</style></defs><path id="ardrop" class="arcls-1" d="M1286.95 1274.71l-4.24 4.24a1.008 1.008 0 01-1.42 0l-4.24-4.24a1.008 1.008 0 010-1.42 1 1 0 011.41 0l3.54 3.54 3.54-3.54a1 1 0 011.41 0 1.008 1.008 0 010 1.42z" transform="translate(-1276.78 -1273)"/></svg><svg viewBox="0 0 20 15" id="email" xmlns="http://www.w3.org/2000/svg"><defs><style>.ascls-1{fill:#21303d;fill-rule:evenodd}</style></defs><path id="asemail" class="ascls-1" d="M2274 4261.82l-10.01-8.83v-.98h20.02v.98zm0 2.66l-10.01-8.82v11.35h20.02v-11.35z" transform="translate(-2264 -4252)"/></svg><svg viewBox="0 0 496.004 496.004" id="female" xmlns="http://www.w3.org/2000/svg"><path d="M447.238 109.125a16 16 0 00-11.257-15.475L330.922 61.046l-11.043-48.591A16 16 0 00304.277 0H191.712a16.001 16.001 0 00-15.603 12.454l-11.043 48.591L60.008 93.65c-8.31 2.579-13.035 11.324-10.639 19.688l27.963 97.597c-9.696 31.052-4.703 64.119 14.199 92.392 11.445 17.166 32.745 90.906 8.151 172.032-3.123 10.3 4.618 20.646 15.317 20.646 6.864 0 13.211-4.453 15.306-11.362 10.792-35.599 14.817-72.647 11.884-109.642h211.609c-2.929 36.922 1.073 73.981 11.884 109.642 2.563 8.453 11.491 13.234 19.953 10.67 8.457-2.564 13.234-11.498 10.67-19.954-12.357-40.762-14.105-84.093-8.424-116.307 3.276-18.651 7.354-41.862 16.515-55.636 19.922-29.953 23.545-62.76 14.255-92.496 30.693-107.914 28.547-98.593 28.587-101.795zm-59.524 3.051l23.746 7.369c-1.037 3.613-4.431 15.379-14.719 51.474-11.046-16.873-9.027-30.396-9.027-58.843zM204.484 32h87.021c11.155 49.083 10.201 48.436 14.409 52.754v24.836c0 51.655-62.678 77.158-98.872 40.96-10.941-10.949-16.968-25.496-16.968-40.96V84.754c4.186-4.294 3.235-3.58 14.41-52.754zm-96.209 80.176c0 28.33 2.052 41.98-9.072 58.913l-14.76-51.517zm269.476 173.518C366.9 302.01 361.842 323.667 358.248 343H137.911c-3.239-17.196-9.372-41.853-19.766-57.442-19.831-29.665-17.563-64.209 3.469-90.885 12.034-15.246 18.661-34.474 18.661-54.143v-38.285l17.8-5.524c0 14.671-2.713 47.384 26.336 76.452 56.196 56.204 153.504 16.595 153.504-63.583V96.721l17.8 5.524v38.285c0 19.669 6.627 38.897 18.655 54.136 20.457 25.946 23.832 60.28 3.381 91.028zM263.995 434v12c0 8.836-7.163 16-16 16s-16-7.164-16-16v-12c0-8.836 7.163-16 16-16s16 7.164 16 16z"/></svg><svg viewBox="0 0 512 512" id="hair-cut" xmlns="http://www.w3.org/2000/svg"><path d="M471 335c0-8.284-6.716-15-15-15-24.813 0-45-20.187-45-45V165c0-44.088-17.173-85.533-48.355-116.7C331.48 17.149 290.062 0 246.001 0h-.086C154.98.046 81 74.709 81 166.436V250c0 43.395 23.154 81.482 57.756 102.561l-37.951 7.852C66.152 367.581 41 398.469 41 433.856V497c0 8.284 6.716 15 15 15h380c8.284 0 15-6.716 15-15v-63.144c0-10.898-2.438-21.579-7.101-31.47C460.677 384.866 471 361.116 471 335zm-50 147H151v-47c0-8.284-6.716-15-15-15s-15 6.716-15 15v47H71v-48.144c0-21.232 15.091-39.765 35.883-44.066l83.515-17.279C199.321 394.47 220.875 410 246 410c18.459 0 34.991-8.385 46.006-21.539 17.446 26.505 47.459 44.039 81.494 44.039 16.456 0 31.969-4.104 45.58-11.333a43.235 43.235 0 011.92 12.689zM246 300c-41.355 0-75-33.645-75-75v-59.046l33.021-44.541L321 170.938V225c0 41.355-33.645 75-75 75zm30 25.626V350c0 16.542-13.458 30-30 30s-30-13.458-30-30v-24.374c9.51 2.841 19.579 4.374 30 4.374s20.49-1.533 30-4.374zm97.5 76.874c-37.22 0-67.5-30.28-67.5-67.5v-23.882c27.183-18.996 45-50.513 45-86.118v-64a15 15 0 00-9.152-13.813l-137-58.002a15.005 15.005 0 00-17.898 4.88l-43 58.002a15.003 15.003 0 00-2.95 8.934v64c0 35.605 17.818 67.122 45 86.118v27.625c-42.511-7.163-75-44.227-75-88.743v-83.564C111 91.242 171.53 30.038 245.931 30h.07c36.047 0 69.939 14.033 95.436 39.518C366.949 95.019 381 128.929 381 165v110c0 35.759 25.156 65.754 58.701 73.217-6.162 30.912-33.505 54.283-66.201 54.283z"/></svg><svg viewBox="0 0 49.733 49.733" id="hangers" xmlns="http://www.w3.org/2000/svg"><path d="M0 39.739c2.503-1.842 5.096-3.723 7.658-5.644 4.102-3.076 8.118-6.273 12.306-9.225 1.746-1.231 2.635-2.715 2.706-4.723.066-1.896.966-2.836 2.758-3.424 2.714-.89 3.403-2.272 2.633-4.479-.811-2.323-3.125-4.609-5.726-3.672-1.889.681-2.637 2.38-2.884 4.272-.09.694.116 1.446-.065 2.103-.133.482-.677 1.194-1.035 1.193-.598-.003-1.452-.344-1.727-.816-.375-.644-.423-1.548-.408-2.336.074-3.842 3.443-7.258 7.101-7.273 3.973-.018 8.018 3.416 8.162 7.094.104 2.648-1.13 4.679-3.547 5.822-1.355.642-2.515 1.28-2.35 3.051.149 1.608 1.157 2.35 2.51 3.072a668.588 668.588 0 0117.433 9.639c1.28.733 2.469 1.809 3.371 2.981 1.701 2.209.702 4.886-2.017 5.641-1.346.374-2.76.68-4.147.696-11.973.148-23.946.231-35.919.305-1.101.007-2.237-.055-3.298-.318C1.637 43.232.267 42.157 0 39.739zm24.165-14.332L4.103 40.433c1.166.676 2.213.884 3.259.874 5.619-.052 11.237-.175 16.855-.239 6.339-.072 12.679-.087 19.018-.181 1.033-.015 2.341.339 2.848-1.086.588-1.655-.913-2.121-1.816-2.696-2.285-1.456-4.705-2.697-7.051-4.06-4.333-2.517-8.651-5.06-13.051-7.638z" fill="#231f20"/></svg><svg viewBox="0 0 512 512" id="hip" xmlns="http://www.w3.org/2000/svg"><path d="M436.948 251.488A760.582 760.582 0 01399.956 0h-32a867.931 867.931 0 0012.8 159.136c-23.44 26.4-62.784 48.48-122.496 18.544a385.605 385.605 0 00-126.224-41.408A197.81 197.81 0 00175.956 0h-32A170.578 170.578 0 01101.7 123.392a310.07 310.07 0 00-57.872 112.224c-33.6 117.744 61.984 263.136 66.08 269.264l26.624-17.76c-.912-1.376-91.552-139.04-61.92-242.736 1.76-6.16 3.6-11.92 5.488-17.392 47.36 7.68 157.056 32.288 204.048 99.536l31.344 172.336 31.472-5.728-28.928-159.088a99.578 99.578 0 0030.72-10.848 101.877 101.877 0 0037.36-35.296l19.12-30.576.96 3.2A761.138 761.138 0 01443.156 512h32a797.93 797.93 0 00-38.208-260.512zm-77.952 19.44a71.297 71.297 0 01-51.888 32.64c-53.104-70.704-160.576-97.6-214.4-107.008a252.178 252.178 0 0117.152-29.552c12.976-.32 59.104 1.76 134.16 39.312A152.004 152.004 0 00312.18 224a118.847 118.847 0 0076.32-28.304c1.6 6.832 3.328 13.472 5.04 19.968l-34.544 55.264z"/><path d="M283.22 96h32v32h-32z"/></svg><svg viewBox="0 0 20 20" id="instagram" xmlns="http://www.w3.org/2000/svg"><defs><style>.axcls-1{fill:#f3f4f9;fill-rule:evenodd}</style></defs><path id="axinstagram" class="axcls-1" d="M1212.64 4615.97a3.315 3.315 0 113.31 3.31 3.308 3.308 0 01-3.31-3.31m-1.8 0a5.11 5.11 0 105.11-5.09 5.111 5.111 0 00-5.11 5.09m9.23-5.3a1.2 1.2 0 101.2-1.19 1.2 1.2 0 00-1.2 1.19m-8.14 13.38a5.582 5.582 0 01-1.85-.35 3.229 3.229 0 01-1.88-1.88c-.6-1.51-.4-8.7-.35-9.86a4.286 4.286 0 011.09-2.98c1-.99 2.28-1.48 11.04-1.09a4.328 4.328 0 012.99 1.09c.99.99 1.49 2.28 1.09 11a5.445 5.445 0 01-.35 1.84c-.9 2.31-2.97 2.63-11.78 2.23m-.08-17.94a5.5 5.5 0 00-5.79 5.77c-.04 1.01-.31 8.6.46 10.59a5.058 5.058 0 002.92 2.9 7.2 7.2 0 002.41.46c8.86.4 12.15.18 13.53-3.36a7.168 7.168 0 00.47-2.41c.4-8.88-.07-10.8-1.61-12.35-1.23-1.22-2.67-2.05-12.39-1.6" transform="translate(-1206 -4606)"/></svg><svg viewBox="0 0 512 512" id="jumping-rope" xmlns="http://www.w3.org/2000/svg"><path d="M66 372h8.47l-12.71 88.983C57.908 487.91 78.829 512 106 512c27.197 0 48.088-24.118 44.239-51.014L137.53 372H146c5.523 0 10-4.477 10-10v-40c0-5.523-4.477-10-10-10h-30V50c0-16.542 13.458-30 30-30s30 13.458 30 30v242c0 44.112 35.888 80 80 80s80-35.888 80-80V50c0-16.542 13.458-30 30-30s30 13.458 30 30v81c0 5.523 4.478 10 10 10s10-4.477 10-10V50c0-27.57-22.43-50-50-50s-50 22.43-50 50v189.169C301.329 222.528 279.877 212 256 212s-45.329 10.528-60 27.169V50c0-27.57-22.43-50-50-50S96 22.43 96 50v262H66c-5.523 0-10 4.477-10 10v40c0 5.523 4.477 10 10 10zm190-140c33.084 0 60 26.916 60 60s-26.916 60-60 60-60-26.916-60-60 26.916-60 60-60zM130.44 463.816C132.569 478.691 121.011 492 106 492c-15.029 0-26.566-13.325-24.44-28.186L94.673 372h22.654zM76 332h60v20H76z"/><circle cx="406" cy="176" r="10"/><path d="M416 221c0-5.523-4.478-10-10-10s-10 4.477-10 10v91h-30c-5.522 0-10 4.477-10 10v40c0 5.523 4.478 10 10 10h8.47l-12.71 88.983C357.908 487.911 378.83 512 406 512c27.197 0 48.088-24.118 44.239-51.014L437.53 372H446c5.522 0 10-4.477 10-10v-40c0-5.523-4.478-10-10-10h-30zm14.44 242.816C432.569 478.69 421.011 492 406 492c-15 0-26.571-13.298-24.44-28.186L394.673 372h22.654zM436 352h-60v-20h60z"/></svg><svg viewBox="0 0 511.907 511.907" id="lotus" xmlns="http://www.w3.org/2000/svg"><path d="M55.574 346.719c-23.619 11.034-35.579 24.192-35.579 39.235 0 20.069 22.23 36.815 66.075 49.771 38.162 11.277 89.025 18.459 143.22 20.223 3.473.1 6.759-1.587 8.673-4.489l18.032-27.342 18.032 27.342a10 10 0 008.673 4.49c20.506-.667 40.724-2.122 60.09-4.324 5.487-.624 9.43-5.578 8.806-11.066-.624-5.487-5.571-9.425-11.066-8.806-17.078 1.942-34.847 3.287-52.901 4.005l-23.286-35.309a10.001 10.001 0 00-16.696 0l-23.286 35.309c-50.433-2.002-97.343-8.787-132.623-19.212-40.845-12.07-51.743-24.908-51.743-30.591 0-6.013 8.898-15.593 33.429-25.107 11.164 7.811 23.097 14.393 35.546 19.594 24.474 10.223 47.908 13.804 68.733 13.804 37.875 0 67.097-11.839 78.246-17.118 43.291 20.501 97.975 23.784 146.977 3.315 12.451-5.197 24.397-11.79 35.588-19.624 24.565 9.529 33.48 19.119 33.48 25.135 0 6.441-11.832 17.786-45.177 28.563-5.255 1.699-8.139 7.335-6.44 12.591 1.702 5.267 7.346 8.134 12.591 6.44 39.167-12.659 59.027-28.671 59.027-47.594 0-15.048-11.974-28.215-35.621-39.26 39.294-34.925 54.263-75.677 54.943-77.572a10 10 0 00-5.048-12.375c-1.794-.87-40.801-19.485-89.605-19.205 15.201-52.851 7.241-102.364 6.864-104.624a10 10 0 00-11.939-8.136c-2.168.46-48.999 10.684-91.86 42.398-15.516-61.71-54.487-105.885-56.276-107.889a9.998 9.998 0 00-14.915 0c-1.79 2.004-40.777 46.195-56.288 107.928-42.88-31.755-89.769-41.988-91.94-42.448a9.998 9.998 0 00-11.938 8.136c-.377 2.26-8.338 51.763 6.865 104.632-48.799-.284-87.812 18.337-89.606 19.207a10 10 0 00-5.492 7.341 9.997 9.997 0 00.551 5.308c8.745 23.334 29.123 54.424 54.884 77.324zm433.131-75.645c-18.912 39.553-51.868 73.542-93.485 90.912-35.633 14.884-73.233 15.638-108.842 5.185 29.931-11.014 76.732-34.101 106.3-77.495 6.618-9.712 12.318-20.437 17.005-31.938 34.132-1.638 64.591 7.861 79.022 13.336zm-112.555 7.338c-25.315 37.153-66.136 58.107-93.562 68.68 18.409-27.845 43.406-75.834 43.406-131.139 0-8.765-.659-17.751-1.94-26.785 29.634-24.299 63.972-36.816 80.99-41.939 3.67 44.106-3.634 94.119-28.894 131.183zM255.994 81.946c28.475 37.846 50 86.441 50 134.007 0 60.636-34.473 113.34-50.017 134.019-15.591-20.658-49.983-73.129-49.983-134.019.001-47.558 21.516-96.149 50-134.007zM106.87 147.208c17.014 5.103 51.327 17.594 81.055 42.007-1.275 8.998-1.931 17.969-1.931 26.739 0 46.957 18.109 92.694 43.58 131.265-27.402-10.51-68.363-31.452-93.826-68.817-25.23-37.021-32.525-86.876-28.878-131.194zm-4.649 110.528c4.706 11.527 10.403 22.249 17 31.929 29.567 43.386 76.364 66.475 106.295 77.491-24.883 7.274-65.255 13.034-108.837-5.171-41.419-17.301-74.344-50.916-93.483-90.93 14.401-5.484 44.778-14.973 79.025-13.319z"/><circle cx="385.995" cy="433.953" r="10"/></svg><svg viewBox="0 0 13.63 12.29" id="megaphone" xmlns="http://www.w3.org/2000/svg"><defs><style>.bacls-1{fill:#21303d;fill-rule:evenodd}</style></defs><path id="bamegaphone" class="bacls-1" d="M1901.26 1615.54v.95l-11.16 2.24a1.371 1.371 0 00-1.09 1.34v1.85a1.371 1.371 0 001.09 1.34l.27.05v1.59a1.36 1.36 0 001.09 1.33l2.72.56a1.358 1.358 0 001.64-1.33v-1.06l5.44 1.1v.95a.681.681 0 00.68.68.683.683 0 00.69-.68v-10.91a.683.683 0 00-.69-.68.681.681 0 00-.68.68zm-6.8 9.11a.685.685 0 01-.82.67l-1.36-.28a.693.693 0 01-.55-.67v-.78l2.73.54v.52z" transform="translate(-1889 -1614.84)"/></svg><svg viewBox="0 0 121.805 121.804" id="minus" xmlns="http://www.w3.org/2000/svg"><path d="M7.308 68.211h107.188a7.309 7.309 0 007.309-7.31 7.308 7.308 0 00-7.309-7.309H7.308a7.31 7.31 0 000 14.619z"/></svg><svg viewBox="0 0 20 20" id="option_bar_settings" xmlns="http://www.w3.org/2000/svg"><defs><style>.bccls-1{fill:#21303d;fill-rule:evenodd}</style></defs><path id="bcoption_bar_settings" class="bccls-1" d="M591.992 356h2v2h-2v9h-2v-9h-2v-2h2v-9h2v9zm7.008-9h-2v4h-2v2h2v14h2v-14h2v-2h-2v-4zm7.008 9v-9h-2v9h-2v2h2v9h2v-9h2v-2h-2z" transform="translate(-588 -347)"/></svg><svg viewBox="0 0 14 20" id="pin_fill_sharp_circle" xmlns="http://www.w3.org/2000/svg"><defs><style>.bdcls-1{fill:#f3f4f9;fill-rule:evenodd}</style></defs><path id="bdpin_fill_sharp_circle" class="bdcls-1" d="M828 348.988a6.993 6.993 0 00-6.987 7c0 3.866 6.987 13 6.987 13s6.988-9.134 6.988-13a6.994 6.994 0 00-6.988-7zm0 9.218a2 2 0 112-2 2 2 0 01-2 2z" transform="translate(-821 -349)"/></svg><svg viewBox="0 0 426.667 426.667" id="plus" xmlns="http://www.w3.org/2000/svg"><path d="M405.332 192H234.668V21.332C234.668 9.559 225.109 0 213.332 0 201.559 0 192 9.559 192 21.332V192H21.332C9.559 192 0 201.559 0 213.332c0 11.777 9.559 21.336 21.332 21.336H192v170.664c0 11.777 9.559 21.336 21.332 21.336 11.777 0 21.336-9.559 21.336-21.336V234.668h170.664c11.777 0 21.336-9.559 21.336-21.336 0-11.773-9.559-21.332-21.336-21.332zm0 0"/></svg><svg viewBox="0 0 512 512" id="plus2" xmlns="http://www.w3.org/2000/svg"><path d="M492 236H276V20c0-11.046-8.954-20-20-20s-20 8.954-20 20v216H20c-11.046 0-20 8.954-20 20s8.954 20 20 20h216v216c0 11.046 8.954 20 20 20s20-8.954 20-20V276h216c11.046 0 20-8.954 20-20s-8.954-20-20-20z"/></svg><svg viewBox="0 0 12.469 15.437" id="rub" xmlns="http://www.w3.org/2000/svg"><defs><style>.bgcls-1{fill:#f3f4f9;fill-rule:evenodd}</style></defs><path id="bgrub" class="bgcls-1" d="M831.786 355.943h2.156v1.826h-2.156v2.025h2.156v2.706h2.685v-2.706h3.608v-2.025h-3.608v-1.826h2.024c3.653 0 5.611-1.738 5.611-4.379 0-2.53-1.408-4.51-5.963-4.51-1.078 0-3.5.044-4.357.044v6.821h-2.156v2.024zm6.8-6.359c1.826 0 2.816.616 2.816 2.222 0 1.563-1.254 2.113-2.838 2.113h-1.936v-4.291c.725-.022 1.407-.044 1.957-.044z" transform="translate(-831.781 -347.063)"/></svg><svg viewBox="0 0 20 20" id="ruler#4" xmlns="http://www.w3.org/2000/svg"><defs><style>.bhcls-1{fill:#21303d;fill-rule:evenodd}</style></defs><path id="bhruler_4" data-name="ruler#4" class="bhcls-1" d="M1966.56 421.292l-2.86-2.856-1.43-1.429-1.43 1.429-11.43 11.427-1.42 1.429 1.42 1.428 2.86 2.857 1.43 1.428 1.43-1.428 2.86-2.857 1.43-1.428 1.42-1.429 1.43-1.428 1.43-1.429 1.43-1.428 1.43-1.429 1.43-1.428zm-2.86 2.857l-1.43-1.428-1.43 1.428 1.43 1.429-1.43 1.428-1.42-1.428-1.43 1.428 1.43 1.429-1.43 1.428-1.43-1.428-1.43 1.428 1.43 1.429-2.86 2.856-2.86-2.856 11.43-11.428 2.86 2.857zm-9.29 6.428a1.007 1.007 0 11-1.42 0 1 1 0 011.42 0z" transform="translate(-1948 -417)"/></svg><svg viewBox="0 0 20 20" id="ruler#4(1)" xmlns="http://www.w3.org/2000/svg"><defs><style>.bicls-1{fill:#21303d;fill-rule:evenodd}</style></defs><path id="biruler_4" data-name="ruler#4" class="bicls-1" d="M1966.56 421.292l-2.86-2.856-1.43-1.429-1.43 1.429-11.43 11.427-1.42 1.429 1.42 1.428 2.86 2.857 1.43 1.428 1.43-1.428 2.86-2.857 1.43-1.428 1.42-1.429 1.43-1.428 1.43-1.429 1.43-1.428 1.43-1.429 1.43-1.428zm-2.86 2.857l-1.43-1.428-1.43 1.428 1.43 1.429-1.43 1.428-1.42-1.428-1.43 1.428 1.43 1.429-1.43 1.428-1.43-1.428-1.43 1.428 1.43 1.429-2.86 2.856-2.86-2.856 11.43-11.428 2.86 2.857zm-9.29 6.428a1.007 1.007 0 11-1.42 0 1 1 0 011.42 0z" transform="translate(-1948 -417)"/></svg><svg viewBox="0 0 512 512" id="salute" xmlns="http://www.w3.org/2000/svg"><path d="M337.601 443.296V512h32v-59.296l21.008-32.688-26.912-17.312zM407.943 393.177l-26.915-17.309 17.309-26.915 26.915 17.31zM486.625 194.048l-.016-.032c-20.022-16.735-49.819-14.07-66.553 5.952a47.117 47.117 0 00-3.095 4.144l-43.472 65.2 36.192-153.808a49.74 49.74 0 001.296-11.2c.03-22.595-15.364-42.294-37.296-47.728-26.316-6.274-52.822 9.633-59.664 35.808l-24.416 97.648V48c0-26.51-21.49-48-48-48s-48 21.49-48 48v142.032l-24.416-97.6c-6.867-26.309-33.761-42.07-60.07-35.203-25.657 6.697-41.401 32.51-35.61 58.387l41.168 174.832-12.8-15.424c-18.698-22.436-52.044-25.466-74.48-6.768-22.436 18.698-25.466 52.044-6.768 74.48L113.601 454.4V512h32v-69.248L45.169 322.24a20.608 20.608 0 01-4.8-13.344c-.132-11.487 9.073-20.906 20.56-21.038a20.797 20.797 0 0116.352 7.646l25.68 30.896a26.927 26.927 0 0020.8 9.84c15.022.106 27.285-11.985 27.392-27.007v-.049a26.586 26.586 0 00-.752-6.4l-45.744-194.576c-2.236-9.243 3.445-18.548 12.688-20.784s18.548 3.445 20.784 12.688l37.04 148.112c3.437 13.714 17.341 22.046 31.055 18.609 11.384-2.853 19.369-13.081 19.377-24.817V48c0-8.837 7.163-16 16-16s16 7.163 16 16v194.016c.009 14.138 11.477 25.593 25.615 25.585a25.6 25.6 0 0024.817-19.377l37.04-148.128c2.363-9.21 11.744-14.76 20.954-12.398 9.043 2.32 14.589 11.426 12.502 20.526L336.241 288a28.727 28.727 0 00-.752 6.4c.105 15.022 12.369 27.114 27.39 27.008h.05a26.606 26.606 0 0022.4-12.176l58.24-87.344a15.31 15.31 0 0112.8-6.832c8.438.026 15.264 6.874 15.264 15.312 0 2.934-.844 5.805-2.432 8.272l-18.96 29.504 26.912 17.312 18.976-29.52c12.895-20.074 8.82-46.609-9.504-61.888z"/><path d="M442.55 339.275l-26.916-17.309 17.309-26.915 26.915 17.31z"/></svg><svg viewBox="0 0 16.25 16.25" id="search_left" xmlns="http://www.w3.org/2000/svg"><defs><style>.bkcls-1{fill:#21303d;fill-rule:evenodd}</style></defs><path id="bksearch_left" class="bkcls-1" d="M1664.5 35.009a6.5 6.5 0 106.5 6.5 6.5 6.5 0 00-6.5-6.5zm0 11.373a4.874 4.874 0 114.88-4.874 4.881 4.881 0 01-4.88 4.874zm9.75 3.725l-1.15 1.149-3.44-3.447 1.14-1.149z" transform="translate(-1658 -35)"/></svg><svg viewBox="0 0 20 19" id="shopping_cart_plus_round" xmlns="http://www.w3.org/2000/svg"><defs><style>.blcls-1{fill:#f3f4f9;fill-rule:evenodd}</style></defs><path id="blshopping_cart_plus_round" class="blcls-1" d="M2300 1965.9h-2l-3.53-6.33a1.034 1.034 0 00-1.37-.46 1.184 1.184 0 00-.37 1.51l2.95 5.28h-9.39l2.95-5.32a1.119 1.119 0 00-.37-1.47 1.037 1.037 0 00-1.36.5l-3.53 6.29h-2.01c-1.21 0-1.57 2.02.34 2.02l1.39 8.4a2 2 0 001.97 1.68h10.63a2 2 0 001.97-1.68l1.39-8.4c1.93 0 1.53-2.02.34-2.02zm-3.55 9.27a1.006 1.006 0 01-.98.82h-8.95a1.008 1.008 0 01-.99-.85l-1.19-7.22h13.48zm-8.47-3.22a1.012 1.012 0 011-1.01h1.01v-1.37a1 1 0 112 0v1.37h1a1.01 1.01 0 010 2.02h-1v.65a1 1 0 01-2 0v-.65h-1.01a1 1 0 01-1-1.01z" transform="translate(-2281 -1959)"/></svg><svg viewBox="0 0 11.5 11.5" id="star_favorite" xmlns="http://www.w3.org/2000/svg"><defs><style>.bmcls-1{fill:#21303d;fill-rule:evenodd}</style></defs><path id="bmstar_favorite" class="bmcls-1" d="M1468.86 1622.02a1.157 1.157 0 00-.3.96l.37 2.25a1.071 1.071 0 01-1.02 1.27 1 1 0 01-.49-.13l-1.94-1.06a1.02 1.02 0 00-.96 0l-1.94 1.06a1 1 0 01-.49.13 1.066 1.066 0 01-1.02-1.27l.37-2.25a1.157 1.157 0 00-.3-.96l-1.57-1.59a1.1 1.1 0 01.57-1.85l2.17-.33a1.056 1.056 0 00.79-.6l.97-2.04a1.014 1.014 0 011.86 0l.97 2.04a1.056 1.056 0 00.79.6l2.17.33a1.1 1.1 0 01.57 1.85z" transform="translate(-1459.25 -1615)"/></svg><svg viewBox="0 0 9.91 10.88" id="tag_fill" xmlns="http://www.w3.org/2000/svg"><defs><style>.bncls-1{fill:#e9b0b7;fill-rule:evenodd}</style></defs><path id="bntag_fill" class="bncls-1" d="M1858.6 4403.4c-6.44-6.4-3.4-3.38-5.4-5.37h-4.21v4.18c1.21 1.2 4.49 4.46 5.71 5.68l4.21-4.18zm-6.72-2.51h-1v-.98h1v.98z" transform="translate(-1849 -4397)"/></svg></svg>