<?xml version="1.0" encoding="utf-8"?>
<!-- Generator: Adobe Illustrator 19.0.1, SVG Export Plug-In . SVG Version: 6.00 Build 0)  -->
<svg version="1.1" xmlns="http://www.w3.org/2000/svg" xmlns:xlink="http://www.w3.org/1999/xlink" x="0px" y="0px"
	 viewBox="0 0 651.8 258.5" style="enable-background:new 0 0 651.8 258.5;" xml:space="preserve">
<style type="text/css">
	.st0{fill:#172833;}
	.st1{fill:#E8B0B6;}
</style>
<g id="Layer_1">
	<g>
		<g>
			<g>
				<g>
					<path class="st0" d="M231,169.2v-57.8h-39v-10c0-2.1,0.3-3.9,0.9-5.2c0.6-1.3,1.4-2.4,2.4-3.2c1-0.8,2.1-1.3,3.3-1.6
						c1.2-0.3,2.3-0.4,3.3-0.4c1.5,0,2.7,0.1,3.5,0.3c0.4,0.1,0.7,0.2,1,0.2v-9.1c-0.3-0.1-0.8-0.3-1.7-0.5
						c-1.1-0.3-2.7-0.5-4.6-0.5c-2.6,0-5.1,0.4-7.3,1.3c-2.2,0.8-4.2,2.1-5.9,3.7c-1.7,1.6-3,3.7-4,6.2c-1,2.4-1.5,5.3-1.5,8.5v10.5
						h-10.9v9.3h10.9v48.5H192v-48.5h28.8v48.5H231z"/>
					<path class="st0" d="M231.3,82.8c-1.5-1.5-3.3-2.2-5.5-2.2c-2.1,0-3.9,0.7-5.4,2.2c-1.5,1.5-2.2,3.3-2.2,5.5
						c0,2.1,0.7,3.9,2.2,5.4c1.5,1.5,3.3,2.2,5.4,2.2c2.2,0,4-0.7,5.5-2.2c1.5-1.5,2.2-3.3,2.2-5.4
						C233.6,86.1,232.8,84.3,231.3,82.8z"/>
				</g>
				<path class="st0" d="M278.8,160.3c-0.4,0.1-0.9,0.1-1.4,0.2c-0.9,0.1-1.7,0.1-2.5,0.1c-3.2,0-5.5-0.7-6.8-2.2
					c-1.3-1.5-2-3.6-2-6.5v-31.2h12.7v-9.3H266V92.8h-9.4v9c0,2.7-0.8,5.1-2.3,6.9c-1.5,1.8-4,2.8-7.4,2.8h-2.6v9.3h11.3v32.9
					c0,5.2,1.4,9.3,4.2,12c2.8,2.8,6.7,4.2,11.6,4.2c1.9,0,3.6-0.1,4.9-0.4c1-0.2,1.8-0.4,2.4-0.5V160.3z"/>
				<path class="st0" d="M308,124c1.2-1.5,2.7-2.8,4.5-3.7c1.8-0.9,3.9-1.3,6.3-1.3c2.6,0,4.8,0.4,6.7,1.2c1.8,0.8,3.4,1.9,4.5,3.4
					c1.2,1.4,2,3.1,2.4,4.9c0.5,1.8,0.7,3.8,0.7,5.9v34.8h10.4v-36.8c0-3.2-0.4-6.2-1.3-9c-0.8-2.8-2.1-5.2-3.8-7.2
					c-1.7-2-3.8-3.6-6.4-4.7c-2.6-1.1-5.6-1.7-9-1.7c-3.3,0-6.6,0.8-9.8,2.3c-3.1,1.5-5.8,4.1-7.8,7.6l-1.1,1.9v-10.1h-10.1v57.8
					h10.4v-33.5c0-2.3,0.3-4.4,0.9-6.4C305.9,127.3,306.8,125.5,308,124z"/>
				<path class="st0" d="M415,152.6c1.4-3.8,2.2-7.9,2.2-12.3c0-4.4-0.7-8.5-2.2-12.2c-1.4-3.7-3.5-7-6.1-9.7
					c-2.6-2.7-5.8-4.9-9.4-6.4c-3.6-1.6-7.6-2.3-11.9-2.3s-8.3,0.8-11.9,2.3c-3.6,1.6-6.7,3.7-9.4,6.4c-2.6,2.7-4.7,6-6.1,9.7
					c-1.4,3.7-2.2,7.8-2.2,12.2c0,4.4,0.7,8.5,2.2,12.3c1.4,3.7,3.5,7,6.1,9.7c2.6,2.7,5.8,4.9,9.4,6.4c3.6,1.6,7.6,2.3,11.9,2.3
					c4.3,0,8.3-0.8,11.9-2.3c3.6-1.6,6.7-3.7,9.4-6.4C411.5,159.6,413.6,156.3,415,152.6z M405.1,149.6c-1,2.7-2.4,5-4.2,6.8
					c-1.8,1.9-3.8,3.3-6.1,4.2c-2.3,0.9-4.7,1.4-7.2,1.4s-4.9-0.5-7.2-1.4c-2.3-0.9-4.3-2.3-6.1-4.2c-1.8-1.8-3.2-4.1-4.2-6.8
					c-1-2.7-1.5-5.8-1.5-9.3c0-3.5,0.5-6.6,1.5-9.2c1-2.6,2.4-4.9,4.2-6.8c1.8-1.8,3.8-3.3,6.1-4.2c4.5-1.8,9.9-1.8,14.4,0
					c2.3,0.9,4.3,2.3,6.1,4.2c1.8,1.8,3.2,4.1,4.2,6.8c1,2.6,1.5,5.7,1.5,9.2C406.6,143.8,406.1,146.9,405.1,149.6z"/>
				<path class="st0" d="M459.5,160.3c-0.4,0.1-0.9,0.1-1.4,0.2c-0.9,0.1-1.7,0.1-2.5,0.1c-3.2,0-5.5-0.7-6.8-2.2
					c-1.3-1.5-2-3.6-2-6.5v-31.2h12.7v-9.3h-12.7V92.8h-9.4v9c0,2.7-0.8,5.1-2.3,6.9c-1.5,1.8-4,2.8-7.4,2.8h-2.6v9.3h11.3v32.9
					c0,5.2,1.4,9.3,4.2,12c2.8,2.8,6.7,4.2,11.6,4.2c1.9,0,3.6-0.1,4.9-0.4c1-0.2,1.8-0.4,2.4-0.5V160.3z"/>
				<path class="st0" d="M522,160c1.4-2,2.6-4.2,3.4-6.6l-8.8-3.1c-1.2,3.2-3,5.9-5.5,8.1c-2.6,2.4-6.5,3.6-11.4,3.6
					c-2.5,0-4.9-0.4-7.1-1.3c-2.2-0.9-4.2-2.2-5.8-3.8c-1.6-1.6-2.9-3.6-3.9-5.9c-0.9-2.3-1.4-4.8-1.5-7.4l0-0.6h44.5
					c0-0.3,0.1-0.6,0.1-1c0-0.6,0.1-1.3,0.1-2c0-4.5-0.6-8.7-1.9-12.4c-1.2-3.7-3-6.9-5.3-9.5c-2.3-2.6-5.2-4.7-8.7-6.2
					c-3.5-1.5-7.5-2.2-11.8-2.2c-3.6,0-7.1,0.7-10.4,2.2c-3.3,1.5-6.3,3.6-8.8,6.2c-2.5,2.7-4.6,5.9-6.1,9.6
					c-1.5,3.7-2.3,7.9-2.3,12.5c0,4.9,0.8,9.3,2.3,13.1c1.6,3.8,3.7,7.1,6.4,9.7c2.7,2.6,5.8,4.6,9.3,6c3.5,1.4,7.2,2,11.1,2
					c3.4,0,6.5-0.5,9.2-1.4c2.8-1,5.3-2.3,7.5-3.9C518.6,164.1,520.5,162.2,522,160z M481.7,134.2c0.1-1.9,0.6-3.9,1.4-5.7
					c0.8-1.8,2-3.5,3.4-5c1.4-1.5,3.1-2.7,5.1-3.6c2-0.9,4.3-1.3,6.8-1.3c5.4,0,9.5,1.5,12.3,4.5c2.8,3,4.3,6.7,4.4,11.1l0,0.6
					h-33.5L481.7,134.2z"/>
				<path class="st0" d="M589,159.4c1.2-1.9,2.2-3.9,2.9-5.8l-9.1-3.9c-0.3,1-0.8,2.1-1.4,3.3c-0.8,1.5-1.8,2.9-3.1,4.1
					c-1.3,1.3-3,2.3-5,3.2c-2,0.8-4.4,1.3-7.3,1.3c-2.4,0-4.8-0.5-7.1-1.4c-2.3-0.9-4.3-2.3-6-4.1c-1.7-1.8-3-4.1-4-6.7
					c-1-2.6-1.5-5.7-1.5-9.1c0-3.5,0.5-6.6,1.5-9.2c1-2.6,2.4-4.9,4.1-6.6c1.7-1.8,3.7-3.1,5.9-4c2.2-0.9,4.5-1.3,7-1.3
					c2.6,0,4.9,0.4,6.7,1.2c1.8,0.8,3.5,1.8,4.8,3.1c1.3,1.2,2.4,2.6,3.1,4.2c0.6,1.3,1.2,2.6,1.6,3.9l9.3-4c-0.6-2-1.6-4-2.7-6.1
					c-1.3-2.2-3-4.2-5.1-5.9c-2.1-1.7-4.6-3.2-7.6-4.3c-2.9-1.1-6.3-1.6-10.2-1.6c-4.1,0-7.9,0.8-11.5,2.3c-3.5,1.5-6.7,3.6-9.2,6.3
					c-2.6,2.7-4.7,5.9-6.1,9.7c-1.5,3.8-2.2,7.9-2.2,12.4c0,4.4,0.7,8.5,2.2,12.2c1.5,3.7,3.5,7,6.1,9.7c2.5,2.7,5.6,4.9,9.2,6.5
					c3.5,1.6,7.5,2.3,11.7,2.3c3.8,0,7.1-0.5,10-1.6c2.9-1.1,5.5-2.5,7.6-4.3C585.9,163.5,587.7,161.5,589,159.4z"/>
				<path class="st0" d="M641.4,166.8c0.1,1,0.2,1.8,0.3,2.4h10.1c-0.1-0.7-0.2-1.6-0.4-2.8c-0.2-1.6-0.2-3.7-0.2-6.3v-29.5
					c0-2.8-0.4-5.5-1.3-8c-0.9-2.5-2.3-4.8-4.2-6.6c-1.9-1.9-4.4-3.4-7.4-4.6c-3-1.2-6.8-1.7-11.1-1.7c-3.1,0-6.1,0.5-8.8,1.4
					c-2.7,0.9-5.2,2.2-7.2,3.8c-2.1,1.6-3.8,3.6-5.1,5.9c-1.2,2.1-2,4.5-2.4,7l9.9,2.3c0.5-3.3,1.8-6,4-8.2c2.3-2.4,5.6-3.5,9.9-3.5
					c4.6,0,8.1,1.1,10.2,3.3c2.1,2.2,3.2,4.8,3.2,7.8c0,1.2-0.3,2.3-1,3.2c-0.7,1-2,1.6-4,1.8l-15.9,2.3c-2.5,0.4-4.8,1-7,1.9
					c-2.1,0.9-4,2-5.5,3.4c-1.5,1.4-2.7,3.1-3.6,5.1c-0.9,2-1.3,4.3-1.3,6.8c0,2.3,0.5,4.5,1.4,6.5c0.9,2,2.2,3.9,3.8,5.4
					c1.7,1.5,3.7,2.8,6,3.7c2.3,0.9,5,1.4,7.9,1.4c2.5,0,4.9-0.3,6.9-0.9c2-0.6,3.8-1.4,5.3-2.3c1.5-1,2.8-2,3.8-3.1
					c1-1.1,1.9-2.2,2.5-3.2l1.1-1.8v2.1C641.2,163.9,641.3,165.6,641.4,166.8z M640.8,144.6c0,3.2-0.5,6.1-1.4,8.4
					c-0.9,2.3-2.2,4.2-3.8,5.6c-1.6,1.4-3.5,2.4-5.6,3.1c-2.1,0.6-4.4,0.9-6.8,0.9c-3.1,0-5.6-0.9-7.4-2.8c-1.8-1.9-2.7-4-2.7-6.4
					c0-2.8,0.9-5,2.7-6.5c1.7-1.5,3.9-2.5,6.4-2.9l18.7-2.8V144.6z"/>
			</g>
		</g>
	</g>
	<g>
		<g>
			<g>
				<g>
					<path class="st1" d="M19.6,258.5H0V148c0-11.3,2.2-22,6.2-31.8C2.2,106.3,0,95.5,0,84.3C0,37.8,37.8,0,84.3,0H121v83.3H84.3
						c-24.1,0-45.2,13.3-56.3,32.9C39.1,135.7,60.2,149,84.3,149h12.5v19.6H84.3c-25.6,0-48.6-11.5-64.1-29.6c-0.4,2.9-0.6,6-0.6,9
						V258.5z M84.3,19.6c-35.7,0-64.7,29-64.7,64.7c0,3.1,0.2,6.1,0.6,9c15.5-18.1,38.5-29.6,64.1-29.6h17.2V19.6H84.3z"/>
				</g>
				<g>
					<path class="st1" d="M19.6,233.3H0C0,186.8,37.8,149,84.3,149h12.5v19.6H84.3C48.6,168.6,19.6,197.6,19.6,233.3z"/>
				</g>
			</g>
			<circle class="st1" cx="121.4" cy="159" r="10"/>
		</g>
	</g>
</g>
<g id="Layer_2">
</g>
</svg>
